<svg version="1.1" xmlns="http://www.w3.org/2000/svg" xmlns:xlink="http://www.w3.org/1999/xlink" width="129.7774" height="144.29928" viewBox="0,0,129.7774,144.29928"><g transform="translate(-136.91262,-133.68055)"><g data-paper-data="{&quot;isPaintingLayer&quot;:true}" fill-rule="nonzero" stroke="none" stroke-linecap="butt" stroke-linejoin="miter" stroke-miterlimit="10" stroke-dasharray="" stroke-dashoffset="0" style="mix-blend-mode: normal"><path d="" fill="#000000" stroke-width="0.5"/><path d="" fill="#000000" stroke-width="0.5"/><path d="M243.29455,224.54764c1.51343,1.20243 3.00399,2.76657 4.37495,4.13754c4.84359,3.90489 6.0359,8.31014 6.53763,14.21374c0.1528,1.7979 1.20225,4.26557 0.69659,5.95548c-0.12386,0.41393 0.43362,-0.79386 0.80359,-1.01703c1.11888,-0.67493 2.48302,-1.12694 3.64399,-1.82353c1.13432,-0.68059 2.26621,-1.36552 3.40308,-2.04185c0.43687,-0.2599 1.92449,-0.37923 1.43497,-0.51624c-2.03459,-0.56944 -2.30452,-3.76937 -2.88519,-5.50338c-0.861,-2.57115 -0.90046,-5.59957 -1.99163,-8.04035c-0.70458,-1.57602 -2.61178,-3.42951 -3.83193,-4.62962c-1.67075,-1.69866 -4.20375,-3.39722 -6.29276,-4.55016c-2.10449,-1.1615 -4.75846,-1.04301 -6.86596,-2.30343c-2.21519,-1.32483 -3.89749,-2.37926 -6.28359,-2.0559c0.02391,1.54812 -0.08826,3.26594 -0.27024,5.04664c2.692,0.71768 5.51565,1.53043 7.52652,3.12807zM243.63619,216.3022c2.03502,1.22611 4.65553,1.10401 6.74635,2.234c2.322,1.25494 4.99477,3.13166 6.86581,4.97845c1.4235,1.44219 3.48566,3.50403 4.33545,5.35274c1.52517,3.31799 1.52695,7.51469 2.75984,10.98028c0.31608,0.8885 2.3895,2.88421 2.3457,3.60809c-0.12284,2.03003 -4.55589,3.80427 -6.0518,4.70181c-1.66959,1.00175 -5.42783,3.95028 -7.34975,2.60437c-0.53912,-0.37755 -0.67185,-2.62615 -0.85892,-3.37492c-0.5913,-2.36676 -0.52281,-4.57815 -0.71322,-7.00437c-0.3132,-3.99086 -2.64415,-7.40001 -5.71345,-9.83466c-1.3398,-1.3398 -2.77621,-2.84349 -4.24618,-4.02985c-1.65644,-1.33684 -4.00361,-2.01376 -6.27785,-2.6049c-0.58304,4.55838 -1.41329,9.20244 -1.44246,12.2425l0.00001,-0.00006c-0.02761,2.87786 0.36546,5.70385 0.28571,8.5943c-0.18965,6.87373 1.83287,27.86093 -8.23911,30.37892c-5.04441,1.2611 -10.49681,1.39092 -15.6877,1.40679c-3.11504,0.00952 -6.2268,1.44414 -9.28438,1.44414c-7.60428,0 -15.62984,-0.18368 -23.07938,-1.71529c-4.34502,-0.89333 -6.07042,-2.40828 -7.13208,-4.98906c-0.96269,-1.31674 -1.4715,-3.75299 -1.73569,-5.95306c-0.37104,-1.18645 -0.75024,-2.66848 -0.25133,-3.25941c-0.01044,-0.2871 -0.01625,-0.53746 -0.0189,-0.74161c-0.15413,-11.87967 0.54911,-23.51226 0.69009,-35.36774c-2.29268,1.11073 -4.61042,2.23298 -6.38503,3.97843c-3.16888,5.34452 -5.52545,9.97241 -6.55842,16.22475c-0.28163,1.70465 -0.06339,4.42939 -2.44149,4.89196c-0.71898,0.13985 -2.21489,-1.13014 -2.94377,-1.46622c-1.15385,-0.53202 -2.51751,-0.60192 -3.75252,-0.80783c-3.20306,-0.46712 -10.3969,-1.4881 -10.58746,-5.99961c-0.06905,-1.63465 2.06371,-4.21725 2.94617,-5.47791c2.30502,-3.29288 4.37994,-6.73864 7.27213,-9.5459c3.78102,-7.56205 13.24695,-11.77528 21.48312,-12.07276c-0.20424,-1.14413 -0.35883,-2.26678 -0.35996,-3.26749l-0.13182,0.04394l-0.32754,0.02519l-0.01167,0.00584l-0.26876,0.05972l-0.24293,0.12956l-0.66667,0.16667h-0.30776l-0.29857,0.07464h-1l-0.2563,-0.06408l-0.13413,0.0531l-0.41582,-0.19058l-0.44375,-0.11094l-0.07157,-0.12525l-0.24016,-0.11007l-0.83333,-0.66667l-0.19217,-0.25222l-0.24609,-0.19995l-0.5,-0.66666l-0.07921,-0.18812l-0.10829,-0.06188l-0.12019,-0.48077l-0.19231,-0.45673l0.04951,-0.11448l-0.04951,-0.19802v-0.33334l0.07465,-0.29857v-0.30776l0.10894,-0.43576l-0.00593,-0.015l0.02131,-0.0465l0.04235,-0.16941l0.25098,-0.47057l0.22221,-0.48483l0.10908,-0.13635l0.02407,-0.04513l0.01553,-0.00437l0.51799,-0.64748l0.25222,-0.19217l0.19995,-0.24609l0.22222,-0.16666h-8.5591l-0.02336,0.01557l-0.0701,-0.01557h-0.06966l-0.55728,-0.13932l-0.56076,-0.12462l-0.06231,-0.03115l-0.73632,-0.18409l-0.04898,-0.08571l-0.09857,-0.00547l-0.83853,-0.97828l-0.16666,-0.33333l-0.02301,-0.10356l-0.06211,-0.086l-0.33334,-0.83334l-0.17409,-1.27666l0.03324,-0.04186l-0.01868,-0.05008l0.56016,-1.16034l2.32377,-2.78851l0.00047,-0.00857l0.02331,-0.01999l0.15245,-0.18293l0.41359,-0.30224l0.38893,-0.33337l0.21298,-0.10649l0.0248,-0.01812l0.00844,0.0015l0.42044,-0.21022l0.17565,-0.03903l0.15181,-0.09661l0.33145,-0.11049l1.17442,-0.58721l0.26876,-0.05972l0.24293,-0.12957l0.40043,-0.1001l0.08788,-0.04394l0.26876,-0.05972l0.07818,-0.0417l-0.98996,-0.89997l-0.51677,-0.38757l-1.6637,-1.10913l-0.52764,-0.17588l-0.0271,0.00738l-0.06157,-0.03694l-0.06609,-0.02203l-0.48462,-0.3084l-0.25841,-0.15504l-0.19035,-0.04759l-0.12305,-0.02734h-0.653l-0.38987,-0.09747l-0.4007,-0.03082l-0.06925,-0.02309l-0.00042,0.00028l-0.0701,-0.01557h-0.06966l-0.55728,-0.13932l-0.56076,-0.12462l-0.06231,-0.03115l-0.06966,-0.01741l-0.01393,-0.02438l-0.18744,-0.09372l-0.97828,-0.83853l-0.01075,-0.19351l-0.12901,-0.08601l0.06211,-1.11803l-0.06211,-1.11803l0.12901,-0.08601l0.01075,-0.1935l0.97828,-0.83853l0.33333,-0.16667l0.03914,-0.00869l0.03125,-0.02514l2.16666,-1l0.19178,-0.03637l0.16907,-0.09754l1.62691,-0.46483l-0.32686,-0.2179l-0.1675,-0.18425l-0.21352,-0.12811l-0.25314,-0.25314l-0.89368,-0.74473l-0.6825,-0.54601l-0.60682,-0.36409l-0.24745,-0.12373l-0.30513,-0.26154l-0.34461,-0.20676l-0.12029,-0.12029l-0.20177,-0.17294l-0.34461,-0.20676l-0.66666,-0.66666l-0.66291,-1.10486l0.09999,-0.36662l-0.16931,-0.29629l0.47848,-0.83734l0.25376,-0.93043l0.32923,-0.08979l0.18854,-0.32995l1.25,-0.3125h0.32233l1.93429,-0.27632l0.78615,-0.26205l0.19771,-0.0152l0.18186,-0.07907l0.49384,-0.08231l-1.01728,-1.01727l-0.12811,-0.21352l-0.18425,-0.1675l-0.05598,-0.08398l-0.58398,-0.38931l-0.1675,-0.18425l-0.21352,-0.12812l-0.21313,-0.21313l-0.3038,-0.1519l-0.30513,-0.26154l-0.34461,-0.20676l-0.04646,-0.04647l-0.63714,-0.31857l-0.02566,-0.02199l-0.10631,-0.02658l-0.07229,-0.12651l-0.77402,-0.66345l-0.04253,-0.76551l-0.36115,-0.63202l0.29716,-0.52003l-0.03323,-0.59801l0.60568,-0.40378l0.38039,-0.66568l0.98901,-0.24725l0.12123,-0.08083l0.10697,0.02378l0.03279,-0.0082h2.5l0.38987,0.09747l0.4007,0.03082l0.90891,0.30297l0.61239,0.1531l-0.00431,-0.01208l-0.10941,-0.17193l-0.13259,-0.13259l-0.09258,-0.15429l-0.13966,-0.11347l-0.5,-0.66667l-0.08818,-0.20943l-0.14789,-0.17254l-0.1519,-0.3038l-1.50009,-1.50009l-0.20177,-0.17294l-0.34461,-0.20676l-0.04647,-0.04647l-0.3038,-0.1519l-0.15498,-0.13284l-0.12453,-0.00692l-0.32251,-0.37626l-0.37627,-0.32251l-0.00185,-0.03331l-0.82197,-0.90417l0.087,-1.26162l0.07015,-1.26266l0.83492,-0.71564l0.00211,-0.00572l0.00925,-0.00402l0.132,-0.11315l0.33333,-0.16666l0.36455,-0.08101l0.34248,-0.14891l3,-0.5l0.02978,0.00238l0.02767,-0.01127l1.16666,-0.16666l0.17898,0.01851l0.17457,-0.04364h0.2978l-1.19758,-1.19757l-1.09189,-0.68243l-0.19808,-0.20541l-0.24469,-0.14682l-0.12029,-0.12029l-0.05162,-0.04424l-0.12453,-0.00692l-0.32251,-0.37626l-0.14207,-0.12177l-0.03542,-0.00197l-0.09175,-0.10703l-0.10703,-0.09174l-0.00196,-0.03543l-0.12177,-0.14207l-0.37627,-0.32251l-0.00154,-0.02783l-0.1699,-0.10195l-0.33334,-0.33334l-0.66291,-1.10486l0.09999,-0.36662l-0.16931,-0.29629l0.47848,-0.83734l0.25375,-0.93043l0.32923,-0.08979l0.18854,-0.32994l1.25,-0.3125h1.37159l0.49472,-0.98946l0.61754,-1.69824l0.24299,-0.35998l0.01018,-0.18319l0.26927,-0.23081l0.19842,-0.29395l0.18082,-0.03111l0.32976,-0.28266l0.17882,-0.08941l0.375,-0.4375l0.09857,-0.00547l0.04898,-0.08571l0.31459,-0.07865l0.00332,-0.00555l0.07791,-0.31163l0.16598,-0.09484l0.25375,-0.42292l0.04647,-0.04647l0.1519,-0.3038l0.26154,-0.30513l0.20676,-0.34461l0.62029,-0.62029l0.01422,-0.01658l0.05313,-0.14877l0.31502,-0.47253l0.00213,-0.03826l0.49103,-0.42088l0.08926,-0.08114l0.10256,-0.15385l0.18425,-0.1675l0.12811,-0.21352l0.28696,-0.28696l0.17294,-0.20177l0.20676,-0.34461l2.5,-2.5l0.27312,-0.16387l0.3962,-0.5943l0.00213,-0.03826l0.49104,-0.42089l0.47854,-0.43504l0.00638,0.00044l0.01712,-0.01997l0.00691,-0.12454l0.37627,-0.32251l0.32251,-0.37626l0.075,-0.00417l0.425,-0.49583l0.1935,-0.01075l0.086,-0.12901l1.06667,0.05926l0.02446,-0.00544l0.01111,0.00741l0.01579,0.00087l1.11803,-0.06211l0.086,0.12901l0.1935,0.01075l0.83853,0.97828l0.43039,0.86079l0.247,0.37049l0.03383,0.09473l0.07354,0.04202l0.09913,0.39655l0.14301,0.12258l0.0106,0.19088l0.26479,0.4161l0.22746,0.68239l0.14762,0.22143l0.1439,0.40291l0.20134,0.3775l0.1001,0.40043l0.21061,0.42121l0.03903,0.17566l0.09661,0.1518l0.11049,0.33145l0.01426,0.02853l0.02438,0.01393l0.01741,0.06966l0.03116,0.06231l0.12461,0.56076l0.01091,0.0436l0.03115,0.06231l0.03268,0.14708l0.25044,-0.25044l0.04424,-0.05161l0.00691,-0.12454l0.37627,-0.32251l0.32251,-0.37626l0.12453,-0.00692l0.05162,-0.04424l0.24058,-0.24058l0.04424,-0.05162l0.00692,-0.12453l0.37626,-0.32251l0.32251,-0.37627l0.12454,-0.00691l0.05161,-0.04424l1.57391,-1.57392l0.04424,-0.05162l0.00692,-0.12453l0.37626,-0.32251l0.32251,-0.37627l0.01317,-0.00073l0.28593,-0.4289l0.00213,-0.03826l0.49103,-0.42088l0.47854,-0.43504l0.03824,0.00263l0.63714,-0.31857l1.25779,-0.27951l0.57172,0.38115l0.68606,0.03812l0.83853,0.97828l0.16667,0.33334l0.05972,0.26876l0.12956,0.24293l0.14338,0.57352l0.08013,0.24036l0.08721,0.17442l0.03903,0.17565l0.09661,0.15181l0.27715,0.83145l0.08721,0.17442l0.03903,0.17566l0.09661,0.1518l0.33333,1l0.03082,0.4007l0.02511,0.10044l0.11074,0.3322l0.00751,0.09774l0.04613,0.08649l0.14338,0.57352l0.00457,0.0137l0.03997,-0.03427l0.32251,-0.37626l0.02783,-0.00155l0.10195,-0.1699l0.04647,-0.04646l0.1519,-0.3038l0.26154,-0.30513l0.20676,-0.34461l0.15829,-0.15829l0.1777,-0.26656l0.00213,-0.03826l0.4375,-0.375l0.08941,-0.17882l0.26154,-0.30513l0.20676,-0.34461l0.12029,-0.12029l0.04424,-0.05161l0.00692,-0.12454l0.37626,-0.32251l0.08398,-0.09798l0.06667,-0.13333l0.13284,-0.15498l0.00691,-0.12453l0.37627,-0.32251l0.32251,-0.37627l0.12453,-0.00691l0.15498,-0.13284l0.18743,-0.09371l0.01394,-0.02438l0.06966,-0.01741l0.06231,-0.03116l0.56075,-0.12461l0.55729,-0.13932h0.06966l0.0701,-0.01558l0.02336,0.01558h0.17021l1.25,0.3125l0.19352,0.33866l0.3755,0.10561l0.60634,1.13688l0.04422,0.17688l0.19709,0.26279l0.08818,0.20944l0.14789,0.17253l0.09706,0.19412l0.247,0.3705l0.03383,0.09473l0.07354,0.04202l0.13658,0.54632l0.01246,0.03487l0.07692,0.11539l0.11231,0.31447l0.10941,0.17192l0.29925,0.29926l0.25376,0.42292l0.16598,0.09484l0.07791,0.31163l0.16527,0.27545l-0.01028,0.03771l0.149,0.17384l0.92705,1.8541l0.02438,0.01393l0.01741,0.06966l0.03115,0.06231l0.06616,0.29769l0.04325,-0.10814l0.01503,-0.02081l-0.00634,-0.05071l0.38667,-0.4759l0.35902,-0.49711l0.05061,-0.00707l0.01619,-0.01993l0.38095,-0.28571l0.28571,-0.38095l0.13966,-0.11347l0.09258,-0.15429l0.44905,-0.44905l0.34166,-0.56943l0.21762,-0.21762l0.15834,-0.2639l1.16667,-1.16667l0.15429,-0.09257l0.11347,-0.13966l0.27489,-0.20617l0.24804,-0.4134l0.21762,-0.21762l0.15834,-0.2639l0.99162,-0.99162l0.1777,-0.26656l0.00213,-0.03826l0.49103,-0.42088l0.47854,-0.43504l0.03824,0.00263l0.3038,-0.1519l1.25779,-0.27951l0.57172,0.38115l0.68606,0.03812l0.83853,0.97828l0.45706,0.91412l0.36409,0.60682l0.56162,0.70202l0.01671,0.03646l0.03112,0.02528l0.8934,1.19119l0.37437,0.37437l0.20676,0.34461l0.26154,0.30513l0.38746,0.77492l0.06861,-0.08005l0.20676,-0.34461l0.04647,-0.04646l0.31857,-0.63714l0.26154,-0.30513l0.20676,-0.34461l0.3798,-0.3798l0.1519,-0.3038l0.13284,-0.15498l0.00692,-0.12453l0.37626,-0.32251l0.13781,-0.16079l0.00211,-0.00592l0.31502,-0.47253l0.00213,-0.03826l0.49104,-0.42089l0.1494,-0.13582l0.18812,-0.31351l0.33333,-0.33334l0.34461,-0.20676l0.30513,-0.26154l0.33333,-0.16667l0.11946,-0.02654l0.00233,-0.0014l0.00178,0.00049l0.71496,-0.15888l0.13975,-0.09317l0.13976,0.03106l0.13976,-0.03106l0.13976,0.09317l0.83852,0.18633l0.33334,0.16667l0.15498,0.13284l0.12453,0.00692l0.32251,0.37626l0.37627,0.32251l0.00691,0.12454l0.13284,0.15497l0.16666,0.33333l0.07243,0.32597l0.14295,0.30178l0.06967,0.34837l0.059,0.0885l0.1439,0.40291l0.20134,0.3775l0.12552,0.50206l0.27032,0.6758l0.02323,0.1704l0.08093,0.15174l0.1001,0.40043l0.13765,0.27531l0.02438,0.01393l0.01741,0.06966l0.03116,0.06231l0.12461,0.56075l0.0623,0.2492l0.4969,-0.74534l0.18425,-0.1675l0.12811,-0.21352l2.55132,-2.55132l0.0055,-0.02754l0.06058,-0.03855l0.04925,-0.04926l0.49258,-0.29554l0.04335,-0.02759l0.4599,-0.3942l0.47854,-0.43504l0.03824,0.00264l0.1579,-0.07895l0.01393,-0.02438l0.06966,-0.01741l0.06231,-0.03116l0.56076,-0.12461l0.55728,-0.13932h0.06966l0.0701,-0.01558l0.02336,0.01558h0.17022l1.25,0.3125l0.04897,0.08571l0.09857,0.00547l0.83853,0.97828l0.26038,0.52077l0.02438,0.01393l0.01741,0.06966l0.03116,0.06231l0.12461,0.56075l0.13932,0.55728v0.06966l0.01558,0.0701l-0.01558,0.02336v0.08934l0.11812,0.59059l-0.01184,0.24872l0.06039,0.24157v2.33334l-0.09747,0.38987l-0.03082,0.4007l-0.20504,0.61512v0.09431l-0.09747,0.38987l-0.03082,0.4007l-0.03838,0.11512v0.13255l0.74275,-0.37138l0.3705,-0.24699l0.14877,-0.05313l0.11995,-0.10281l0.52745,-0.26372l0.3705,-0.247l0.40291,-0.1439l0.05556,-0.02963l0.01839,-0.06536l0.19894,-0.1061l0.14674,-0.17119l0.19451,-0.01081l0.59669,-0.31824l0.24656,-0.06164l0.63969,-0.42646l0.31447,-0.11231l0.28171,-0.17927l0.33145,-0.11049l0.02852,-0.01426l0.01394,-0.02438l0.06966,-0.01741l0.06231,-0.03116l0.56075,-0.12461l0.37695,-0.09423l0.08308,-0.04154l0.01393,-0.02438l0.06966,-0.01741l0.06231,-0.03115l0.56076,-0.12462l0.55728,-0.13932h0.06966l0.0701,-0.01557l0.02336,0.01557h0.17022l1.25,0.3125l0.3409,0.5966l0.5966,0.3409l0.3125,1.25v1.17022l0.01557,0.02336l-0.01557,0.0701v0.06966l-0.13932,0.55728l-0.12462,0.56076l-0.03115,0.06231l-0.01741,0.06966l-0.02438,0.01393l-0.18093,0.36186l-0.27715,0.83145l-0.09661,0.15181l-0.03903,0.17565l-0.83334,1.66667l-0.26154,0.30513l-0.20676,0.34461l-0.49162,0.49162l-0.19602,0.29403l-0.36319,0.33018l-0.06273,0.06899l0.48986,-0.06997l1.00247,-0.28642l0.34851,-0.01162l0.33829,-0.08457h0.91912l1.2257,-0.24514l1.14405,-0.42902l0.44413,-0.05076l0.43368,-0.10842h0.40476l0.01191,-0.02084l0.06966,-0.01741l0.06231,-0.03115l0.56076,-0.12462l0.55728,-0.13932h0.06966l0.0701,-0.01557l0.02336,0.01557h0.09786l0.11512,-0.03838l0.4007,-0.03082l0.38987,-0.09747h1l1.25,0.3125l0.04898,0.08571l0.09857,0.00547l0.83853,0.97828l0.33334,0.66667l0.03903,0.17566l0.09661,0.1518l0.15623,0.46868l0.02889,0.02517l0.03077,0.646l0.0496,0.64483l-0.02555,0.02856l-0.1602,0.80096l-0.06762,0.14277l-0.01211,0.15751l-0.16667,0.5l-0.17927,0.28171l-0.11231,0.31447l-0.247,0.3705l-0.43039,0.86079l-0.10281,0.11995l-0.05313,0.14877l-0.66667,1l-0.18425,0.1675l-0.12811,0.21352l-0.12029,0.12029l-0.01422,0.01658l-0.05313,0.14877l-0.247,0.3705l-0.09706,0.19412l-0.26154,0.30513l-0.20676,0.34461l-0.12029,0.12029l-0.17294,0.20177l-0.20676,0.34461l-0.12029,0.12029l-0.01422,0.01659l-0.05313,0.14878l-0.288,0.432l1.08353,0.24078l0.06823,0.03411l0.07625,0.00255l1.16667,0.33333l0.13926,0.08035l0.15873,0.0256l0.88989,0.38138l0.70297,0.11716l0.09345,0.04063h0.10189l0.36809,0.09203h0.19223l0.38988,0.09747l0.40069,0.03082l0.5,0.16667l0.15181,0.09661l0.17566,0.03903l0.66667,0.33333l0.11994,0.10281l0.14878,0.05313l0.3705,0.24699l0.19412,0.09706l0.15498,0.13284l0.12453,0.00691l0.32251,0.37627l0.37626,0.32251l0.00692,0.12453l0.13284,0.15498l0.09371,0.18743l0.02438,0.01394l0.01742,0.06966l0.03115,0.06231l0.12462,0.56075l0.13932,0.55729v0.06966l0.01558,0.0701l-0.01558,0.02336v0.83688l-0.3125,1.25l-0.08571,0.04897l-0.00548,0.09857l-0.97828,0.83853l-0.8541,0.42705l-0.01393,0.02438l-0.06966,0.01741l-0.06231,0.03115l-0.4724,0.10498l-0.30929,0.18558l-0.40787,0.29457l-0.24926,0.0997l-0.01631,0.00979l-0.00485,-0.00133l-0.46637,0.18655l-0.0387,0.01935l-0.45508,0.34131l-0.69472,0.55578l-0.23542,0.23542l-0.34461,0.20676l-0.30513,0.26154l-0.17883,0.08942l-0.375,0.4375l-0.03826,0.00213l-0.81068,0.54045l0.17148,0.11432l0.1675,0.18425l0.21352,0.12811l1.12029,1.12029l0.05162,0.04424l0.12453,0.00692l0.32251,0.37626l0.16079,0.13781l0.00592,0.00212l0.5,0.33333l0.1675,0.18425l0.21352,0.12811l0.33333,0.33334l0.20677,0.34461l0.26153,0.30513l0.16667,0.33334l0.02654,0.11945l0.0014,0.00233l-0.00049,0.00178l0.25205,1.13423l-0.38115,0.57172l-0.03812,0.68606l-0.97828,0.83853l-0.66667,0.33334l-0.10356,0.02301l-0.086,0.06212l-0.67039,0.26815l-0.15149,0.09641l-0.20906,0.2439l-0.19088,0.0106l-0.41609,0.26479l-0.61513,0.20504l-0.34212,0.25659l-0.06546,0.02756l-0.04779,0.05256l-0.5,0.33333l-0.14877,0.05313l-0.11995,0.10281l-0.66666,0.33334l-0.17565,0.03903l-0.15181,0.09661l-0.1625,0.05416l0.46465,0.46465l0.29403,0.19602l0.1675,0.18425l0.21352,0.12811l1,1l0.09258,0.15429l0.13966,0.11347l0.3934,0.52454l0.54103,0.54103l0.09257,0.15429l0.13966,0.11347l0.5,0.66666l0.06018,0.14291l0.53614,0.45955l0.00547,0.09857l0.08571,0.04897l0.3125,1.25v0.33334l-0.11962,0.47848l0.0503,0.18444l-0.16527,0.27545l-0.07791,0.31163l-0.16598,0.09484l-0.25375,0.42292l-0.33334,0.33334l-0.32483,0.1949l-0.28292,0.25191l-3.5,1.83334l-0.29021,0.07026l-0.26347,0.14052l-0.66666,0.16666h-0.30777l-0.29857,0.07465h-1.00355l-0.02336,0.01557l-0.0701,-0.01557h-0.06966l-0.55728,-0.13932l-0.56076,-0.12462l-0.06231,-0.03115l-0.06966,-0.01741l-0.01393,-0.02438l-0.24975,-0.12487l-0.0436,-0.0109l-0.10158,-0.02257l0.73899,1.10848l0.05313,0.14877l0.10281,0.11995l0.33333,0.66666l0.03903,0.17565l0.09661,0.15181l0.27715,0.83145l0.08721,0.17442l0.03903,0.17565l0.09661,0.15181l0.11049,0.33145l0.08721,0.17442l0.03903,0.17566l0.09661,0.1518l0.07988,0.23965l0.07433,0.12387l0.16713,0.18384l0.40327,0.34566l0.0058,0.10431l0.15136,0.16649l-0.0787,1.14126l0.06131,1.10351l-0.14404,0.09602l-0.01191,0.1727l-0.98853,0.49427l-0.13547,0.09031l-0.00322,0.00574l-0.00556,0.00012l-0.80759,0.5384l-0.21965,-0.04881l-0.09344,0.04672l-0.50019,-0.17864l-0.4445,-0.09877l-0.29684,-0.14842l-1.00055,-0.10005l-0.4267,-0.15318l-0.44257,-0.09835l-3.28254,-1.64127l-1.4481,-0.6436l-0.0893,-0.06977l-0.10945,-0.02937l-2.95252,-1.64028l-0.33338,-0.16669v1.48049l0.09203,0.36809v0.30776l0.07465,0.29857v0.41912l0.10645,0.53226l0.15224,0.60895v0.30777l0.07464,0.29857v0.8589l0.09203,0.36809v0.30776l0.07465,0.29857v1.81966l0.14133,0.63602l0.02533,0.04432l-0.01114,0.01951l0.02672,0.12025l-0.08076,0.12114c0.18158,0.50855 0.31697,1.08041 0.41322,1.70421c2.88556,-0.34078 5.0999,0.80066 7.78816,2.42036zM149.16067,229.21312c-2.82455,2.88669 -4.93382,6.20585 -7.24766,9.51133c-0.72973,1.04247 -2.31202,2.83739 -2.49875,4.0507c-0.08536,0.55463 0.8264,0.75995 1.22199,1.15796c1.7377,1.74837 4.86668,2.0389 7.24778,2.37105c2.27084,0.37833 4.35505,0.57877 6.00853,2.26338c0.33787,0.34423 -0.01063,-0.96782 0.05179,-1.44611c0.06016,-0.46094 0.15216,-0.91716 0.22918,-1.37558c0.23595,-1.40438 0.58276,-2.8012 0.92734,-4.17951c1.26832,-5.07328 3.44357,-8.74844 6.12655,-13.17277c2.35276,-2.38365 5.36569,-3.73421 8.37765,-5.23225c0.00156,-0.42191 0.00228,-0.84414 0.00209,-1.26672c-0.00048,-1.03972 -0.23489,-2.34627 -0.50833,-3.73101c-7.63588,0.10002 -16.43191,4.03705 -19.93814,11.04952zM174.75,266.75c0.17369,0.7816 -0.0627,2.73758 0.68326,3.22512c3.04602,1.99081 6.50109,1.39522 9.81674,2.13203c9.16399,2.03644 17.73402,-0.50092 26.71428,-0.71429c4.47482,-0.10632 11.08257,0.71544 14.42155,-2.64754c3.25565,-3.27906 2.63431,-9.81042 2.63431,-13.84936c0,-9.51222 0.60297,-18.88465 0.72986,-28.31087c0.06261,-4.65093 -2.60101,-10.48194 -0.83446,-14.42137l-1.5151,-1.64135l-1.91466,-1.75511l-1.61443,-1.45298l-1.13794,-0.93105l-0.26481,0.35308l-0.1098,0.21958l-0.1001,0.40043l-0.12957,0.24293l-0.05972,0.26877l-0.08721,0.17442l-0.44382,1.33145l-0.17927,0.28171l-0.11231,0.31447l-0.24699,0.37049l-0.46155,0.9231l-0.18409,0.73632l-0.08571,0.04898l-0.00547,0.09856l-0.0871,0.07466l-0.10648,0.47917l-0.03115,0.06231l-0.01741,0.06966l-0.02438,0.01393l-0.12487,0.24974l-0.0109,0.04361l-0.12461,0.56075l-0.03116,0.06231l-0.01741,0.06966l-0.02438,0.01393l-0.26038,0.52077l-0.83853,0.97828l-0.09857,0.00547l-0.04898,0.08571l-1.25,0.3125h-0.33333l-0.15552,-0.03888l-0.09878,0.04547l-0.48744,-0.19203l-0.50826,-0.12706l-0.05395,-0.09441l-0.14915,-0.05875l-1.09687,-0.78348l-2.09361,-1.28838l-0.24638,-0.25198l-0.29323,-0.19548l-1.62665,-1.78932l-0.79127,-0.79126l-0.09354,-0.1559l-0.08687,0.34746l-0.06397,0.46914l-0.33334,0.83333l-0.06211,0.086l-0.02301,0.10356l-0.62016,1.24033l-0.29471,0.73678l-0.06211,0.086l-0.02301,0.10356l-0.03115,0.06231l-0.01091,0.04361l-0.12461,0.56075l-0.03116,0.06231l-0.01741,0.06966l-0.02438,0.01393l-0.42705,0.8541l-0.83853,0.97828l-0.09857,0.00548l-0.04898,0.08571l-1.25,0.3125h-0.33333l-0.32137,-0.08034l-0.15317,0.0547l-0.37199,-0.18599l-0.40347,-0.10087l-0.08069,-0.14122l-0.29629,-0.14814l-1.16666,-1l-0.0076,-0.01071l-0.01168,-0.00599l-1.33334,-1.16666l-0.12775,-0.18397l-0.17816,-0.13573l-0.63223,-0.79029l-1.13037,-1.29185l-0.01413,-0.02754l-0.02499,-0.01826l-0.04791,-0.05749l-0.03174,0.04761l-0.26372,0.52746l-0.10281,0.11995l-0.05313,0.14877l-0.31502,0.47253l-0.00213,0.03826l-0.49104,0.42089l-0.00481,0.00437l-0.00415,0.07474l-0.37626,0.32251l-0.08398,0.09799l-0.23334,0.46666l-0.25728,0.30017l-0.12462,0.49847l-0.59659,0.3409l-0.34091,0.5966l-1.25,0.3125h-0.33688l-0.02336,0.01557l-0.0701,-0.01557h-0.06966l-0.55728,-0.13932l-0.43718,-0.09716l-0.00178,0.00048l-0.00234,-0.0014l-0.11945,-0.02654l-0.06231,-0.03115l-0.06966,-0.01741l-0.01393,-0.02438l-0.18744,-0.09372l-0.30513,-0.26154l-0.34461,-0.20676l-0.58648,-0.58648l-0.91288,-0.76074l-0.0682,-0.09332l-0.09911,-0.05946l-0.49162,-0.49162l-0.29403,-0.19602l-0.33018,-0.36319l-0.31397,-0.28543l-0.0333,-0.00185l-0.32251,-0.37627l-0.37626,-0.32251l-0.00692,-0.12453l-0.13284,-0.15498l-0.23334,-0.46667l-0.08398,-0.09798l-0.29346,-0.25154l-0.20178,0.10089l-0.07339,0.0163l-0.05985,0.04549l-1.16667,0.5l-0.19985,0.03223l-0.17861,0.09527l-0.40043,0.1001l-1.00919,0.50459l-0.12732,0.25464l-0.13284,0.15497l-0.00692,0.12454l-0.37626,0.32251l-0.32251,0.37626l-0.12454,0.00692l-0.15498,0.13284l-0.3038,0.1519l-0.21313,0.21313l-0.42292,0.25375l-0.09484,0.16598l-0.31163,0.07791l-0.27545,0.16527l-0.18444,-0.0503l-0.47848,0.11962h-1l-0.17106,-0.04277l-0.10464,0.04709l-0.47613,-0.19228l-0.49816,-0.12454l-0.05694,-0.09963l-0.16349,-0.06603l-1.72849,-1.25708l-0.03196,-0.00178l-0.04885,-0.05699l-0.02404,-0.01748l-0.29591,-0.35344c0.22099,2.47491 -0.45058,5.37335 -0.43605,8.28221c0.06699,13.4137 -0.60083,26.48676 -0.57143,39.88179c0.00221,1.00399 0.52056,3.24694 0.77812,5.47483c0.0257,0.11783 0.05196,0.23762 0.07903,0.35944zM162.06939,150.20137l-1.16666,2.33333l-0.03808,0.04443l3.56978,3.56977l0.1718,0.28634l0.23104,0.24108l0.66666,1.16666l0.28369,1.00868l0.06128,0.09192l-0.01564,0.07037l0.01952,0.06939l-0.05608,0.09517l-0.22731,1.02286l-0.16666,0.33333l-0.83853,0.97828l-0.09857,0.00547l-0.04898,0.08571l-0.96055,0.24014l-0.3322,0.11074l-0.4007,0.03082l-0.38987,0.09747h-1.12643l-1.71832,0.28638l0.11252,0.11252l0.20676,0.34461l0.26154,0.30513l0.23252,0.46504l0.25815,0.3442l0.25902,0.25902l0.02754,0.0055l0.03855,0.06058l0.04926,0.04925l0.29554,0.49258l0.3084,0.48462l0.02203,0.06608l0.03694,0.06157l-0.00738,0.02709l0.00921,0.02764l0.08744,0.13116l0.59889,0.74862l0.15342,0.33474l0.2156,0.29852l0.66666,1.66666l0.08523,0.62499l0.10916,0.16374l-0.05381,0.24215l0.03351,0.24578l-0.12238,0.15411l-0.13683,0.61575l-0.16667,0.33333l-0.32098,0.37447l-0.03749,0.18745l-0.27101,0.17246l-0.20906,0.2439l-0.19088,0.0106l-0.41609,0.26479l-0.5,0.16666l-0.4007,0.03082l-0.38987,0.09747h-0.15566l-0.2702,0.0386l0.52697,0.52696l0.20676,0.34461l0.26154,0.30513l0.31857,0.63714l0.04646,0.04647l0.25376,0.42292l0.16598,0.09484l0.07791,0.31163l0.16527,0.27545l-0.0503,0.18444l0.11962,0.47848v0.33334l-0.3125,1.25l-0.08571,0.04897l-0.00547,0.09857l-0.97828,0.83853l-0.33334,0.16667l-0.07338,0.0163l-0.05985,0.04549l-1.09914,0.47106l-0.12172,0.06086l-0.01394,0.02438l-0.06966,0.01741l-0.06231,0.03116l-0.56075,0.12461l-0.55729,0.13932h-0.06966l-0.0701,0.01558l-0.02336,-0.01558h-0.00602l0.00446,0.0061l0.09911,0.05947l0.15829,0.15829l0.79403,0.52935l0.07442,0.08186l0.10057,0.0461l0.83333,0.66666l0.2843,0.37314l0.32458,0.33868l0.66666,1.16666l0.01923,0.06838l0.04623,0.05394l0.26038,0.52077l0.02438,0.01393l0.01741,0.06966l0.03116,0.06231l0.12461,0.56076l0.13932,0.55728v0.06966l0.01558,0.0701l-0.01558,0.02336v0.17022l-0.3125,1.25l-0.08571,0.04897l-0.00547,0.09857l-0.97828,0.83853l-0.52077,0.26038l-0.01393,0.02438l-0.06966,0.01741l-0.06231,0.03116l-0.56075,0.12461l-0.04361,0.01091l-0.01868,0.00934l1.05842,0.70562l0.04779,0.05256l0.06546,0.02757l0.66666,0.5l0.07579,0.09328l0.10589,0.05687l1.81577,1.6507l1.31547,1.15104l0.04854,0.0699l0.07297,0.04378l0.66666,0.66666l0.20676,0.34461l0.26154,0.30513l0.16666,0.33333l0.02654,0.11946l0.0014,0.00233l-0.00048,0.00178l0.08605,0.3872l0.10188,0.11697l-0.04554,0.13659l0.10966,0.49345l-0.54828,0.82242l-0.31257,0.9377l-0.45683,0.2164l-0.07987,0.1198l-0.15488,-0.00861l-0.47286,0.22399l-0.56155,0.11231l-1.24672,0.5541l-0.04765,0.00834l-0.03922,0.02832l-0.83334,0.33334l-0.17039,0.02323l-0.15174,0.08093l-0.40043,0.1001l-0.08787,0.04394l-0.26877,0.05972l-0.24293,0.12957l-0.40043,0.1001l-1.08787,0.54394l-0.17565,0.03903l-0.09151,0.05823h5.90158l1.42392,-0.28478l0.15312,0.00729l0.14543,-0.04847l2.16666,-0.16667l0.09664,0.01641l0.0951,-0.02378h2.16666l1.25,0.3125l0.04898,0.08571l0.09856,0.00547l0.83853,0.97828l0.16666,0.33333l0.18634,0.83853l0.09317,0.13975l-0.03106,0.13976l0.03106,0.13976l-0.09317,0.13976l-0.18634,0.83852l-0.33334,0.66667l-0.13284,0.15497l-0.00692,0.12454l-0.37626,0.32251l-0.12177,0.14207l-0.00197,0.03543l-0.10703,0.09174l-0.09174,0.10703l-0.03543,0.00197l-0.14207,0.12177l-0.32251,0.37626l-0.12454,0.00692l-0.05161,0.04424l-0.12029,0.12029l-0.21352,0.12811l-0.1675,0.18425l-0.24451,0.16301l0.08204,-0.01824l0.15181,-0.09661l0.83145,-0.27715l0.56581,-0.2829l2.09967,-1.79971l0.43042,-0.21521l0.40598,-0.25836l0.5,-0.16666l0.65412,-0.05032l0.13645,-0.07797l0.10408,0.05947l0.39003,-0.03l0.78215,0.69982l0.91124,0.52071l0.09488,0.3795l0.08934,0.07993l-0.03082,0.15411l0.15911,0.63646v2.48632l0.02735,0.12306l0.0109,0.0436l0.12487,0.24975l0.02438,0.01393l0.01741,0.06966l0.03116,0.06231l0.12461,0.56076l0.01091,0.0436l0.09186,0.18373l0.23695,0.17233l0.06354,-0.12707l0.13284,-0.15498l0.00692,-0.12454l0.37626,-0.32251l0.32251,-0.37626l0.12454,-0.00692l0.15497,-0.13284l2,-1l0.26876,-0.05972l0.24293,-0.12957l0.47233,-0.11808l0.91502,-0.39215l1.7884,-0.89419l0.01393,-0.02438l0.06966,-0.01741l0.06231,-0.03115l0.56076,-0.12462l0.55728,-0.13932h0.06966l0.0701,-0.01557l0.02336,0.01557h0.17022l1.25,0.3125l0.04897,0.08571l0.09857,0.00548l0.83853,0.97828l0.16667,0.33333l0.02151,0.09682l0.33873,0.29034l0.00691,0.12454l0.13284,0.15497l0.06667,0.13333l0.08398,0.09799l0.37626,0.32251l0.00692,0.12453l0.13284,0.15498l0.25608,0.51216l0.4375,0.375l0.00213,0.03826l0.03767,0.0565l0.08398,0.05598l0.1675,0.18425l0.21352,0.12812l0.58648,0.58648l0.02061,0.01717l0.02686,-0.03133l0.00197,-0.03543l0.10703,-0.09174l0.09174,-0.10703l0.03543,-0.00197l0.14207,-0.12177l0.28399,-0.33132l0.2,-0.4l0.10281,-0.11995l0.05313,-0.14877l0.24699,-0.3705l0.35093,-0.70188l0.24679,-0.74036l0.07403,-0.29612l-0.02087,-0.03131l0.27951,-1.25779l0.16666,-0.33333l0.02199,-0.02566l0.02658,-0.10631l0.12651,-0.07229l0.66344,-0.77402l0.76552,-0.04253l0.63202,-0.36115l0.52002,0.29716l0.59801,-0.03323l0.40379,0.60568l0.66568,0.38039l0.13442,0.53768l0.08082,0.09429l0.04612,0.09226l0.15224,0.09134l0.33333,0.33334l0.20676,0.34461l0.26154,0.30513l0.06585,0.13171l0.32631,0.43507l0.77304,0.92766l1.14684,1.31067l0.02578,0.05028l0.04495,0.03424l0.48222,0.60278l0.4497,-0.8994l0.1159,-0.28976v-2.94619l-0.03838,-0.11512l-0.03082,-0.4007l-0.09747,-0.38987v-0.09431l-0.03838,-0.11512l-0.02967,-0.3857l-0.01208,-0.01812l-0.03383,-0.09473l-0.07354,-0.04202l-0.13658,-0.54632l-0.1894,-0.53034l0.03788,-0.07576l-0.02439,-0.09758v-0.09431l-0.03838,-0.11512l-0.03329,-0.4327l-0.11058,-0.49762l0.06482,-0.09724l-0.01977,-0.25711l0.75004,-0.83828l0.60246,-0.90368l0.19634,0.01091l0.13112,-0.14655l1.065,0.213l1.12311,0.0624l0.16782,0.19579l0.1146,0.02292l0.27368,0.43007l0.28242,0.3295l0.06667,0.13333l0.08398,0.09798l0.37627,0.32251l0.00691,0.12454l0.04424,0.05161l1.28696,1.28696l0.12811,0.21352l0.18425,0.1675l0.19602,0.29403l0.48324,0.48325l0.29403,0.19602l0.15986,0.17585l0.13334,0.02667l0.25456,0.40002l0.31895,0.35084l-0.00821,0.11895l0.11401,0.07601l0.03826,0.00213l0.42089,0.49104l0.43504,0.47854l-0.00073,0.0106l0.51503,0.51503l0.03136,0.05227l0.05072,0.03382l1.42854,1.57139l0.625,0.38462l0.00029,-0.00521l0.1786,-0.15309l0.01498,-0.06741l0.03115,-0.06231l0.01741,-0.06966l0.02438,-0.01393l0.59372,-1.18743l0.10281,-0.11995l0.05313,-0.14877l0.14762,-0.22143l0.39413,-1.18239l0.09661,-0.15181l0.03903,-0.17565l0.04394,-0.08788l0.10011,-0.40043l0.12956,-0.24293l0.05972,-0.26876l0.33334,-0.66667l0.14789,-0.17253l0.08819,-0.20944l0.25658,-0.34211l0.03838,-0.11513l0.17928,-0.28171l0.11231,-0.31447l0.64835,-0.97253l0.00213,-0.03826l0.49103,-0.42089l0.47854,-0.43504l0.03824,0.00263l0.1579,-0.07895l0.01393,-0.02438l0.06966,-0.01741l0.06231,-0.03116l0.56076,-0.12461l0.55728,-0.13932h0.06966l0.0701,-0.01558l0.02336,0.01558h0.0071l0.02336,-0.01558l0.0701,0.01558h0.06966l0.55728,0.13932l0.56075,0.12461l0.06231,0.03116l0.06966,0.01741l0.01393,0.02438l0.52077,0.26038l0.17254,0.14789l0.20943,0.08818l0.66666,0.5l0.03413,0.04201l0.04896,0.0231l1.83333,1.5l0.03603,0.04838l0.05329,0.02827l1.66667,1.5l0.00656,0.00975l0.01033,0.0056l0.97736,0.89591v-0.24526l-0.09203,-0.36809v-0.30776l-0.07465,-0.29857v-5.33688l-0.01557,-0.02336l0.01557,-0.0701v-0.06966l0.13932,-0.55728l0.12462,-0.56076l0.03115,-0.06231l0.01741,-0.06966l0.02438,-0.01393l0.09372,-0.18744l0.83853,-0.97828l0.68607,-0.03812l0.57172,-0.38115l1.25779,0.27951l0.50776,0.25387l0.1767,0.0589l0.0271,-0.00739l0.06157,0.03695l0.06609,0.02203l0.48462,0.30839l0.49257,0.29555l0.04647,0.04647l1.97047,0.98523l0.04229,0.03624l0.05379,0.01444l2.90283,1.61268l0.3971,0.17649l-0.60883,-1.36987l-1.4746,-2.94921l-0.18634,-0.83853l-0.09317,-0.13975l0.03106,-0.13976l-0.03106,-0.13976l0.09317,-0.13976l0.18634,-0.83852l0.16666,-0.33334l0.83853,-0.97828l0.09856,-0.00547l0.04898,-0.08571l1.25,-0.3125h1.00355l0.02336,-0.01558l0.0701,0.01558h0.06966l0.55729,0.13932l0.56075,0.12461l0.06231,0.03116l0.06966,0.01741l0.01394,0.02438l0.02852,0.01426l1.83145,0.61049l0.28171,0.17927l0.31447,0.11231l0.32435,0.21623l0.01284,0.00322l0.56075,0.12461l0.06231,0.03116l0.04361,0.0109l0.56075,0.12461l0.06231,0.03116l0.06966,0.01741l0.0119,0.02084h0.26367l0.07868,-0.01967l1.02141,-0.53502l-0.35239,-0.46985l-0.69932,-0.69932l-0.29403,-0.19602l-0.1675,-0.18425l-0.21352,-0.12811l-3.33334,-3.33334l-0.25375,-0.42292l-0.16598,-0.09484l-0.07791,-0.31163l-0.16527,-0.27545l0.0503,-0.18444l-0.11962,-0.47848v-0.33334l0.3125,-1.25l0.08571,-0.04897l0.00548,-0.09857l0.97828,-0.83853l0.18744,-0.09372l0.01393,-0.02438l0.06966,-0.01741l0.06231,-0.03116l0.56076,-0.12461l0.55728,-0.13932h0.06966l0.0701,-0.01558l0.02336,0.01558h0.15654l0.12306,-0.02734l0.55728,-0.13932h0.06966l0.0701,-0.01558l0.01653,0.01102l0.05315,-0.03382l0.18239,-0.0608l0.22143,-0.14762l0.31447,-0.11231l0.28171,-0.17927l0.33145,-0.11049l0.36854,-0.18427l0.31276,-0.20851l0.61115,-0.45836l0.32684,-0.13762l-0.41957,-0.41957l-0.24453,-0.16302l-0.547,-0.3282l-0.23965,-0.07988l-0.23227,-0.14781l-0.2634,-0.08016l-0.83334,-0.5l-0.0431,-0.0431l-0.05741,-0.0205l-0.87049,-0.58033l-0.19412,-0.09706l-0.02566,-0.02199l-0.10631,-0.02658l-0.07229,-0.12651l-0.77402,-0.66345l-0.04253,-0.76551l-0.36115,-0.63202l0.29716,-0.52002l-0.03323,-0.59802l0.60568,-0.40378l0.38039,-0.66568l0.73632,-0.18408l0.06231,-0.03116l0.21353,-0.04745l0.09809,-0.06539l0.07767,0.01726l0.27738,-0.23776l0.18744,-0.09371l0.01393,-0.02438l0.06966,-0.01741l0.06231,-0.03116l0.11945,-0.02654l0.00234,-0.0014l0.00178,0.00048l0.25461,-0.05658l0.23986,-0.17989l0.06546,-0.02757l0.04779,-0.05256l1.45637,-0.97091l0.00074,-0.01317l0.37626,-0.32251l0.32251,-0.37626l0.12454,-0.00692l0.15497,-0.13284l0.3038,-0.1519l0.04646,-0.04646l0.12071,-0.07243l0.08532,-0.11198l0.83333,-0.66667l0.03645,-0.01671l0.02528,-0.03112l0.38553,-0.28915l-0.07285,-0.03168l-0.29748,-0.04798l-1.02102,-0.43758l-0.94262,-0.26932l-2.92722,-0.65049l-0.03022,-0.01511h-0.03379l-1.03476,-0.25869h-0.8589l-1.06705,-0.26676l-0.05098,0.00283l-0.01246,-0.01869l-0.11951,-0.02988l-0.59752,-1.04567l-0.66805,-1.00207l0.02672,-0.12025l-0.01114,-0.0195l0.02534,-0.04433l0.21114,-0.95014l-0.00048,-0.00178l0.0014,-0.00233l0.02654,-0.11945l0.16666,-0.33334l0.26154,-0.30513l0.20676,-0.34461l1.82496,-1.82496l0.1777,-0.26656l0.00213,-0.03826l0.49103,-0.42089l0.08926,-0.08114l0.01622,-0.02434l0.09706,-0.19412l0.26154,-0.30513l0.20676,-0.34461l0.12029,-0.12029l0.17294,-0.20177l0.20676,-0.34461l0.12029,-0.12029l0.01421,-0.01659l0.05313,-0.14878l0.24699,-0.37049l0.09706,-0.19412l0.26154,-0.30513l0.20676,-0.34461l0.15829,-0.15829l0.27151,-0.40727h-0.37537l-0.90886,0.34082l-0.20293,0.02319l-0.18459,0.08743l-1.66666,0.33334l-0.24872,-0.01184l-0.24157,0.06039h-0.81653l-0.83,0.23714l-0.17297,0.00577l-0.16028,0.0653l-0.94351,0.13479l-0.78614,0.26205l-0.4007,0.03082l-0.38987,0.09747h-2.16667l-1.25,-0.3125l-0.04897,-0.08571l-0.09857,-0.00547l-0.83853,-0.97828l-0.09372,-0.18743l-0.02438,-0.01393l-0.01741,-0.06966l-0.03116,-0.06231l-0.12461,-0.56075l-0.13932,-0.55728v-0.06966l-0.01558,-0.0701l0.01558,-0.02336v-0.84043l-0.01558,-0.02336l0.01558,-0.0701v-0.06966l0.13932,-0.55728l0.02566,-0.11547l-0.01389,-0.02083l0.01557,-0.0701v-0.06966l0.13932,-0.55729l0.12462,-0.56075l0.03115,-0.06231l0.01741,-0.06966l0.02438,-0.01394l0.29154,-0.58308l0.18408,-0.73632l0.08571,-0.04898l0.00548,-0.09856l0.0258,-0.02212l-0.97812,0.48906l-0.17565,0.03903l-0.15181,0.09661l-0.5,0.16667l-0.15751,0.01211l-0.14277,0.06762l-0.23687,0.04738l-0.35835,0.28668l-0.10057,0.0461l-0.07441,0.08186l-0.29403,0.19602l-0.32495,0.32496l-0.34461,0.20676l-0.30513,0.26154l-0.33333,0.16666l-0.11945,0.02654l-0.00234,0.0014l-0.00178,-0.00048l-0.95013,0.21114l-0.04433,0.02534l-0.01951,-0.01114l-0.12025,0.02672l-1.00208,-0.66805l-1.04567,-0.59752l-0.02988,-0.11951l-0.0187,-0.01246l0.00284,-0.05098l-0.26676,-1.06705v-2.5l0.09747,-0.38988l0.03082,-0.40069l0.03838,-0.11513v-0.09786l-0.01557,-0.02336l0.01557,-0.0701v-0.06966l0.13932,-0.55728l0.02735,-0.12306v-0.65299l0.09747,-0.38988l0.03082,-0.40069l0.03838,-0.11513v-0.0943l0.03056,-0.12223l-0.45043,0.67565l-0.18425,0.1675l-0.12812,0.21352l-0.2077,0.20771l-0.8934,1.19119l-0.27586,0.22414l-0.22414,0.27586l-0.32408,0.24307l-0.0958,0.14369l-0.08185,0.07442l-0.0461,0.10057l-0.38813,0.48516l-0.02567,0.07701l-0.17927,0.28171l-0.11231,0.31447l-0.247,0.3705l-0.09706,0.19412l-0.02199,0.02566l-0.02658,0.10631l-0.12651,0.07229l-0.66345,0.77402l-0.76551,0.04253l-0.63202,0.36116l-0.52003,-0.29716l-0.59801,0.03322l-0.40378,-0.60568l-0.66568,-0.38038l-0.24725,-0.98901l-0.08083,-0.12123l0.02378,-0.10698l-0.0082,-0.03278v-2.31966l-0.02735,-0.12306l-0.13932,-0.55728v-0.06966l-0.01557,-0.0701l0.01389,-0.02084l-0.02566,-0.11547l-0.13932,-0.55728v-0.06966l-0.01558,-0.0701l0.01558,-0.02336v-0.31934l-0.03838,-0.0603l-0.16666,-0.5l-0.03082,-0.40069l-0.05239,-0.20954l-0.11449,-0.22897l-0.05972,-0.26877l-0.12219,-0.2291l-0.19405,0.19406l-0.31857,0.63714l-0.26154,0.30513l-0.20676,0.34461l-0.04647,0.04646l-0.31857,0.63714l-0.26154,0.30513l-0.20676,0.34461l-0.12029,0.12029l-0.17294,0.20177l-0.08079,0.13466l-0.02203,0.06608l-0.30839,0.48462l-0.29555,0.49258l-0.04647,0.04646l-0.18305,0.36611l-0.0109,0.04361l-0.12461,0.56075l-0.03116,0.06231l-0.01741,0.06966l-0.02438,0.01393l-0.09372,0.18743l-0.83853,0.97828l-0.47541,0.02641l-0.31579,0.30264l-0.84644,-0.23807l-0.87793,0.04878l-0.24262,-0.36393l-0.45836,-0.12892l-0.60634,-1.13688l-0.14338,-0.57352l-0.41346,-1.24036l-0.25387,-0.50776l-0.03903,-0.17566l-0.09661,-0.1518l-0.14344,-0.43031l-0.26743,-0.66858l-0.43873,-0.87746l-0.21313,-0.21313l-0.09258,-0.1543l-0.13966,-0.11347l-0.97656,-1.30209l-0.05543,-0.06928l-0.16455,0.16455l-0.30346,0.37349l-0.52453,0.39339l-0.82341,0.82341l-0.34166,0.56943l-0.21762,0.21762l-0.15834,0.2639l-0.54103,0.54103l-0.3934,0.52453l-0.27586,0.22414l-0.22414,0.27586l-0.10583,0.07938l-0.07297,0.18243l-0.29458,0.40787l-0.25885,0.43142l-0.18983,0.18983l-0.01114,0.01542l-0.00498,0.0007l-0.42665,0.42664l-0.23853,0.37484l-0.16958,0.28262l-0.02202,0.06609l-0.09661,0.1518l-0.03903,0.17566l-0.16667,0.33333l-0.83853,0.97828l-0.09857,0.00547l-0.04897,0.08571l-1.25,0.3125h-0.17022l-0.02336,0.01558l-0.0701,-0.01558h-0.06966l-0.55728,-0.13932l-0.56076,-0.12461l-0.06231,-0.03116l-0.06966,-0.01741l-0.01393,-0.02438l-0.18744,-0.09371l-0.15497,-0.13284l-0.12454,-0.00691l-0.32251,-0.37627l-0.37626,-0.32251l-0.00692,-0.12453l-0.13284,-0.15498l-0.1519,-0.3038l-0.3798,-0.3798l-0.20676,-0.34461l-0.26154,-0.30513l-0.33334,-0.66666l-0.05972,-0.26877l-0.12957,-0.24293l-0.04338,-0.17352l-0.05278,-0.08797l-0.16598,-0.09484l-0.07791,-0.31163l-0.16527,-0.27545l0.04719,-0.17305l-0.67115,-1.3423l-0.04646,-0.04646l-0.25376,-0.42292l-0.16598,-0.09484l-0.07791,-0.31164l-0.00235,-0.00393l-0.05132,-0.05132l-0.02754,-0.00551l-0.03855,-0.06058l-0.04926,-0.04925l-0.29554,-0.49257l-0.28491,-0.44771l-0.08758,0.10216l-0.0333,0.00185l-0.13503,0.12275l-0.12811,0.21352l-0.04647,0.04646l-0.1519,0.3038l-0.26154,0.30513l-0.20676,0.34461l-0.12029,0.12029l-0.04424,0.05162l-0.00692,0.12453l-0.37626,0.32251l-0.08398,0.09799l-0.23334,0.46666l-0.26154,0.30513l-0.20676,0.34461l-0.32495,0.32495l-0.19602,0.29403l-0.18425,0.1675l-0.12812,0.21352l-0.04646,0.04646l-0.1519,0.3038l-0.26154,0.30513l-0.20676,0.34461l-0.12029,0.12029l-0.17294,0.20177l-0.20676,0.34461l-0.33334,0.33334l-1.10485,0.66291l-0.2809,-0.07661l-0.24226,0.16151l-1.25779,-0.27951l-0.33333,-0.16666l-0.97828,-0.83853l-0.00548,-0.09856l-0.08571,-0.04898l-0.3125,-1.25v-0.40476l-0.02083,-0.0119l-0.01741,-0.06966l-0.03116,-0.06231l-0.12461,-0.56075l-0.13932,-0.55728v-0.06966l-0.01558,-0.0701l0.01558,-0.02336v-0.43119l-0.20505,-0.61512l-0.02519,-0.32754l-0.00583,-0.01167l-0.03903,-0.17565l-0.09661,-0.15181l-0.16666,-0.5l-0.00752,-0.09774l-0.04613,-0.08649l-0.14338,-0.57352l-0.1363,-0.40892l-0.03082,-0.4007l-0.02511,-0.10043l-0.08157,-0.24471l-1.05636,1.05636l-0.3125,0.1875l-0.1875,0.3125l-0.66666,0.66666l-0.3125,0.1875l-0.1875,0.3125l-0.95363,0.95363l-0.01421,0.01659l-0.05313,0.14877l-0.33334,0.5l-0.18425,0.1675l-0.12811,0.21352l-0.71313,0.71313l-0.1519,0.3038l-0.83853,0.97828l-0.68606,0.03812l-0.57172,0.38115l-1.25779,-0.27951l-0.33334,-0.16666l-0.15498,-0.13284l-0.12453,-0.00691l-0.32251,-0.37627l-0.37627,-0.32251l-0.00691,-0.12453l-0.13284,-0.15498l-0.26038,-0.52077l-0.02438,-0.01393l-0.01741,-0.06966l-0.03115,-0.06231l-0.12462,-0.56075l-0.09423,-0.37694l-0.2082,-0.41641l-0.02438,-0.01393l-0.01741,-0.06966l-0.03115,-0.06231l-0.12462,-0.56075l-0.13932,-0.55728v-0.06966l-0.00045,-0.00203l-0.02038,-0.01165l-0.01741,-0.06966l-0.03116,-0.06231l-0.12461,-0.56076l-0.01091,-0.0436l-0.03115,-0.06231l-0.12462,-0.56075l-0.0109,-0.04361l-0.03116,-0.06231l-0.03903,-0.17565l-0.09661,-0.15181l-0.11048,-0.33145l-0.25388,-0.50776l-0.05972,-0.26877l-0.12956,-0.24293l-0.06164,-0.24656l-0.09313,-0.13969l-0.05876,-0.16454l-0.40104,0.36458l-0.01061,-0.00073l-1.96865,1.96865l-0.17294,0.20177l-0.20676,0.34461l-0.32495,0.32495l-0.17771,0.26656l-0.00213,0.03826l-0.49104,0.42088l-0.08925,0.08114l-0.01623,0.02434l-0.09706,0.19412l-0.26154,0.30513l-0.20676,0.34461l-0.54647,0.54646l-0.1519,0.3038l-0.14788,0.17253c-0.05011,0.19507 -0.12317,0.38093 -0.21613,0.55454l-0.0179,0.07157l-0.03296,0.01883c-0.11265,0.19088 -0.24995,0.36548 -0.40751,0.51943l-0.31259,1.14616l-1.45181,0.39595l-0.08508,0.09927l-0.04606,0.00256l-0.33533,0.92215l-0.08173,0.12108z" fill="#000000" stroke-width="0.5"/><path d="M243.32658,224.58603c-2.01087,-1.59764 -4.90584,-2.4797 -7.59784,-3.19738c0.18198,-1.7807 0.30084,-3.50552 0.27693,-5.05364c2.3861,-0.32336 4.07717,0.72502 6.29236,2.04985c2.1075,1.26042 4.7818,1.136 6.88629,2.2975c2.08901,1.15294 4.65534,2.86123 6.32609,4.55989c1.22015,1.20011 3.14553,3.07971 3.85011,4.65573c1.09117,2.44078 1.12785,5.50458 1.98885,8.07573c0.58067,1.73401 0.84511,4.94296 2.8797,5.5124c0.48952,0.13701 -1.0005,0.25924 -1.43737,0.51914c-1.13687,0.67633 -2.27751,1.36902 -3.41183,2.04961c-1.16097,0.69659 -2.5362,1.15441 -3.65508,1.82934c-0.36997,0.22317 -0.95933,1.33623 -0.83547,0.9223c0.50566,-1.68991 -0.54825,-4.15601 -0.70105,-5.95391c-0.50173,-5.9036 -1.64953,-10.21963 -6.49312,-14.12452c-1.37096,-1.37097 -2.85518,-2.93961 -4.36861,-4.14204z" data-paper-data="{&quot;noHover&quot;:false,&quot;origItem&quot;:[&quot;Path&quot;,{&quot;applyMatrix&quot;:true,&quot;segments&quot;:[[[243.29455,224.54764],[0,0],[1.51343,1.20243]],[[247.6695,228.68518],[-1.37096,-1.37097],[4.84359,3.90489]],[[254.20713,242.89892],[-0.50173,-5.9036],[0.1528,1.7979]],[[254.90372,248.8544],[0.50566,-1.68991],[-0.12386,0.41393]],[[255.70731,247.83737],[-0.36997,0.22317],[1.11888,-0.67493]],[[259.3513,246.01384],[-1.16097,0.69659],[1.13432,-0.68059]],[[262.75438,243.97199],[-1.13687,0.67633],[0.43687,-0.2599]],[[264.18935,243.45575],[0.48952,0.13701],[-2.03459,-0.56944]],[[261.30416,237.95237],[0.58067,1.73401],[-0.861,-2.57115]],[[259.31253,229.91202],[1.09117,2.44078],[-0.70458,-1.57602]],[[255.4806,225.2824],[1.22015,1.20011],[-1.67075,-1.69866]],[[249.18784,220.73224],[2.08901,1.15294],[-2.10449,-1.1615]],[[242.32188,218.42881],[2.1075,1.26042],[-2.21519,-1.32483]],[[236.03829,216.37291],[2.3861,-0.32336],[0.02391,1.54812]],[[235.76805,221.41955],[0.18198,-1.7807],[2.692,0.71768]],[[243.29457,224.54762],[-2.01087,-1.59764],[0,0]]],&quot;closed&quot;:true,&quot;fillColor&quot;:[0,0,0,1]}]}" fill="#2ca44d" stroke-width="0.5"/><path d="M149.12131,229.18231c3.50623,-7.01247 12.37624,-10.95481 20.01212,-11.05483c0.27344,1.38474 0.51304,2.6971 0.51352,3.73682c0.00019,0.42258 0.00108,0.84705 -0.00048,1.26896c-3.01196,1.49804 -6.02617,2.8468 -8.37893,5.23045c-2.68298,4.42433 -4.89472,8.17921 -6.16304,13.25249c-0.34458,1.37831 -0.69636,2.77524 -0.93231,4.17962c-0.07702,0.45842 -0.16562,0.8147 -0.22578,1.27564c-0.06242,0.47829 0.282,1.89026 -0.05587,1.54603c-1.65348,-1.68461 -3.75849,-1.89052 -6.02933,-2.26885c-2.3811,-0.33215 -5.52707,-0.63692 -7.26477,-2.38529c-0.39559,-0.39801 -1.31,-0.60718 -1.22464,-1.16181c0.18673,-1.21331 1.76544,-3.01514 2.49517,-4.05761c2.31384,-3.30548 4.42977,-6.67493 7.25432,-9.56162z" data-paper-data="{&quot;noHover&quot;:false,&quot;origItem&quot;:[&quot;Path&quot;,{&quot;applyMatrix&quot;:true,&quot;segments&quot;:[[[149.16067,229.21312],[0,0],[-2.82455,2.88669]],[[141.91301,238.72445],[2.31384,-3.30548],[-0.72973,1.04247]],[[139.41426,242.77515],[0.18673,-1.21331],[-0.08536,0.55463]],[[140.63625,243.93311],[-0.39559,-0.39801],[1.7377,1.74837]],[[147.88403,246.30416],[-2.3811,-0.33215],[2.27084,0.37833]],[[153.89256,248.56754],[-1.65348,-1.68461],[0.33787,0.34423]],[[153.94435,247.12143],[-0.06242,0.47829],[0.06016,-0.46094]],[[154.17353,245.74585],[-0.07702,0.45842],[0.23595,-1.40438]],[[155.10087,241.56634],[-0.34458,1.37831],[1.26832,-5.07328]],[[161.22742,228.39357],[-2.68298,4.42433],[2.35276,-2.38365]],[[169.60507,223.16132],[-3.01196,1.49804],[0.00156,-0.42191]],[[169.60716,221.8946],[0.00019,0.42258],[-0.00048,-1.03972]],[[169.09883,218.16359],[0.27344,1.38474],[-7.63588,0.10002]],[[149.16069,229.21311],[3.50623,-7.01247],[0,0]]],&quot;closed&quot;:true,&quot;fillColor&quot;:[0,0,0,1]}]}" fill="#2ca44d" stroke-width="0.5"/><path d="M174.63535,266.42565c-0.25755,-2.22788 -0.78007,-4.47562 -0.78227,-5.47962c-0.0294,-13.39503 0.63685,-26.52651 0.56986,-39.94021c-0.01453,-2.90886 0.66301,-5.81452 0.44201,-8.28943l0.3667,0.42407l0.02404,0.01748l-0.02198,-0.0136l0.03198,0.00175l1.72882,1.25676l0.16357,0.06596l0.05691,0.09966l0.49844,0.12427l0.47636,0.19207l0.10476,-0.0472l0.17116,0.04267l1.0008,-0.00074l0.47897,-0.12006l0.18456,0.05019l0.27581,-0.16558l0.31197,-0.07819l0.09505,-0.16616l0.4235,-0.25422l0.21349,-0.21342l0.3042,-0.15222l0.15522,-0.13303l0.12466,-0.00702l0.3231,-0.3767l0.37687,-0.32295l0.00702,-0.1246l0.13308,-0.15515l0.12763,-0.25486l1.0106,-0.50554l0.40093,-0.10042l0.17888,-0.09543l0.20009,-0.03238l1.16834,-0.50097l0.05995,-0.04555l0.07348,-0.01636l0.20208,-0.10106l0.29365,0.25144l0.08402,0.09796l0.23331,0.46668l0.18003,0.24314l-0.04029,0.03637l0.37652,0.32237l0.32267,0.37618l0.03335,0.00183l0.31419,0.28532l0.33037,0.3631l0.29429,0.19589l0.49197,0.49145l0.09921,0.05942l0.06823,0.0933l0.91369,0.76035l0.58697,0.58626l0.345,0.20658l0.30544,0.2614l0.18768,0.09361l0.01394,0.02438l0.06976,0.01737l0.06239,0.03112l0.11964,0.02647l0.00234,0.0014l0.00178,-0.00049l0.43786,0.09688l0.55816,0.13898l0.06978,-0.00005l0.07021,0.01553l0.02342,-0.01559l0.33748,-0.00022l1.25249,-0.31333l0.34187,-0.59688l0.59787,-0.34125l0.12508,-0.49858l0.25789,-0.30031l0.23395,-0.4668l0.08418,-0.09803l0.37706,-0.32267l0.00418,-0.07474l0.00483,-0.00438l0.49206,-0.42108l0.00214,-0.03826l0.31572,-0.47265l0.05327,-0.14879l0.10302,-0.11998l0.26432,-0.52754l0.03181,-0.04762l0.04798,0.05748l0.02503,0.01825l0.01414,0.02754l1.13214,1.29165l0.6333,0.7902l0.17849,0.13571l0.12798,0.18395l1.33593,1.16657l0.01171,0.00599l0.00762,0.01071l1.16916,1.00003l0.29694,0.14817l0.08089,0.14123l0.40437,0.10093l0.37284,0.18606l0.15349,-0.05467l0.32208,0.08042l0.33405,0.00009l1.25256,-0.31211l0.04905,-0.0857l0.09877,-0.00544l0.83982,-0.97802l0.42751,-0.854l0.02442,-0.01392l0.01742,-0.06966l0.03119,-0.0623l0.12461,-0.56075l0.01091,-0.04361l0.03118,-0.0623l0.02301,-0.10356l0.06219,-0.08598l0.29494,-0.73673l0.62071,-1.24019l0.02301,-0.10356l0.06218,-0.08598l0.33354,-0.83328l0.0399,-0.37208l0.11086,-0.44455l0.09374,0.15595l0.79282,0.79168l1.63007,1.79043l0.29379,0.19569l0.24691,0.25218l2.09756,1.29012l1.09898,0.78459l0.14939,0.05889l0.0541,0.09449l0.50904,0.12752l0.48823,0.1925l0.09887,-0.04541l0.15574,0.03902l0.33375,0.00027l1.25125,-0.31167l0.04897,-0.08572l0.09867,-0.0054l0.83871,-0.97815l0.20338,-0.43861l0.02436,-0.01394l0.01745,-0.06964l0.03117,-0.0623l0.12489,-0.56056l0.01092,-0.0436l0.12492,-0.24971l0.02437,-0.01394l0.01745,-0.06964l0.03116,-0.0623l0.10671,-0.47902l0.08706,-0.07468l0.00554,-0.09852l0.08566,-0.04901l0.1844,-0.73612l0.46169,-0.923l0.24699,-0.3705l0.1124,-0.31441l0.17928,-0.28171l0.44421,-1.33119l0.08723,-0.17441l0.05983,-0.2687l0.12959,-0.24292l0.10025,-0.40034l0.16298,-0.30427l0.26485,-0.35306l1.1395,0.93207l1.61667,1.4546l1.91725,1.75723l1.51721,1.64332c-1.76655,3.93943 0.90726,9.78487 0.84465,14.4358c-0.12689,9.42621 -0.73155,18.84428 -0.73155,28.3565c0,4.03893 0.60999,10.58405 -2.64567,13.8631c-3.33898,3.36298 -9.96376,2.55064 -14.43858,2.65696c-8.98027,0.21337 -17.58824,2.74764 -26.75223,0.7112c-3.31565,-0.73681 -6.78081,-0.14803 -9.82683,-2.13884c-0.74596,-0.48753 -0.51208,-2.44586 -0.68577,-3.22746c-0.02707,-0.12182 -0.05362,-0.2419 -0.07932,-0.35973z" data-paper-data="{&quot;noHover&quot;:false,&quot;origItem&quot;:[&quot;Path&quot;,{&quot;applyMatrix&quot;:true,&quot;segments&quot;:[[[174.75,266.75],[-0.02707,-0.12182],[0.17369,0.7816]],[[175.43326,269.97512],[-0.74596,-0.48753],[3.04602,1.99081]],[[185.25,272.10715],[-3.31565,-0.73681],[9.16399,2.03644]],[[211.96429,271.39286],[-8.98027,0.21337],[4.47482,-0.10632]],[[226.38583,268.74532],[-3.33898,3.36298],[3.25565,-3.27906]],[[229.02014,254.89596],[0,4.03893],[0,-9.51222]],[[229.75,226.5851],[-0.12689,9.42621],[0.06261,-4.65093]],[[228.91554,212.16373],[-1.76655,3.93943],[0,0]],[227.40044,210.52238],[225.48577,208.76727],[223.87135,207.31429],[222.73341,206.38324],[222.46859,206.73633],[222.3588,206.95591],[222.25869,207.35634],[222.12913,207.59927],[222.0694,207.86804],[221.98219,208.04246],[221.53838,209.37391],[221.3591,209.65562],[221.24679,209.97009],[220.9998,210.34058],[220.53825,211.26368],[220.35417,212],[220.26846,212.04898],[220.26298,212.14754],[220.17589,212.2222],[220.0694,212.70137],[220.03825,212.76368],[220.02084,212.83334],[219.99645,212.84727],[219.87158,213.09701],[219.86068,213.14062],[219.73607,213.70137],[219.70492,213.76368],[219.6875,213.83334],[219.66312,213.84727],[219.40274,214.36804],[218.56421,215.34632],[218.46565,215.35179],[218.41667,215.4375],[217.16667,215.75],[216.83334,215.75],[216.67782,215.71112],[216.57904,215.75659],[216.0916,215.56457],[215.58334,215.4375],[215.52939,215.34309],[215.38024,215.28434],[214.28337,214.50086],[212.18976,213.21248],[211.94338,212.9605],[211.65015,212.76502],[210.0235,210.9757],[209.23224,210.18444],[209.1387,210.02854],[209.05183,210.37601],[208.98786,210.84515],[208.65453,211.67848],[208.59242,211.76448],[208.5694,211.86804],[207.94924,213.10836],[207.65453,213.84515],[207.59242,213.93115],[207.5694,214.0347],[207.53825,214.09701],[207.52735,214.14062],[207.40274,214.70137],[207.37158,214.76368],[207.35417,214.83334],[207.32979,214.84727],[206.90274,215.70137],[206.06421,216.67965],[205.96565,216.68513],[205.91667,216.77084],[204.66667,217.08334],[204.33334,217.08334],[204.01197,217.00299],[203.8588,217.0577],[203.48681,216.87171],[203.08334,216.77084],[203.00264,216.62962],[202.70636,216.48148],[201.53969,215.48148],[201.53209,215.47077],[201.52041,215.46478],[200.18707,214.29811],[200.05932,214.11414],[199.88116,213.97841],[199.24893,213.18812],[198.11856,211.89626],[198.10444,211.86872],[198.07945,211.85046],[198.03154,211.79297],[197.9998,211.84058],[197.73607,212.36804],[197.63326,212.48798],[197.58013,212.63675],[197.26511,213.10928],[197.26298,213.14754],[196.77195,213.56843],[196.76713,213.57281],[196.76298,213.64754],[196.38672,213.97005],[196.30274,214.06804],[196.0694,214.5347],[195.81212,214.83487],[195.6875,215.33334],[195.09091,215.67424],[194.75,216.27084],[193.5,216.58334],[193.16312,216.58334],[193.13976,216.59891],[193.06966,216.58334],[193,216.58334],[192.44272,216.44402],[192.00554,216.34686],[192.00376,216.34735],[192.00142,216.34595],[191.88197,216.3194],[191.81966,216.28825],[191.75,216.27084],[191.73607,216.24645],[191.54864,216.15274],[191.24351,215.8912],[190.8989,215.68444],[190.31242,215.09796],[189.39954,214.33722],[189.33135,214.2439],[189.23224,214.18444],[188.74061,213.69281],[188.44659,213.49679],[188.11641,213.1336],[187.80243,212.84817],[187.76913,212.84632],[187.44662,212.47005],[187.07036,212.14754],[187.06344,212.02301],[186.9306,211.86804],[186.69727,211.40137],[186.61328,211.30339],[186.31982,211.05185],[186.11804,211.15274],[186.04465,211.16904],[185.9848,211.21453],[184.81813,211.71453],[184.61829,211.74676],[184.43967,211.84203],[184.03924,211.94213],[183.03006,212.44673],[182.90274,212.70137],[182.7699,212.85634],[182.76298,212.98088],[182.38672,213.30339],[182.06421,213.67965],[181.93968,213.68657],[181.7847,213.8194],[181.4809,213.97131],[181.26777,214.18444],[180.84485,214.43819],[180.75,214.60417],[180.43837,214.68208],[180.16292,214.84735],[179.97848,214.79705],[179.5,214.91667],[178.5,214.91667],[178.32894,214.8739],[178.2243,214.92099],[177.74816,214.72871],[177.25,214.60417],[177.19307,214.50454],[177.02957,214.43851],[175.30108,213.18142],[175.26913,213.17965],[175.22028,213.12266],[175.19624,213.10518],[[174.90033,212.75173],[0,0],[0.22099,2.47491]],[[174.46429,221.03395],[-0.01453,-2.90886],[0.06699,13.4137]],[[173.89286,260.91574],[-0.0294,-13.39503],[0.00221,1.00399]],[[174.67097,266.39056],[-0.25755,-2.22788],[0.0257,0.11783]]],&quot;closed&quot;:true}]}" fill="#60c000" stroke-width="0.5"/><path d="M162.05802,150.03338l0.0818,-0.12121l0.33582,-0.92297l0.04608,-0.00259l0.08515,-0.09938l1.45241,-0.3969l0.31322,-1.1471c0.15757,-0.15395 0.29525,-0.32911 0.4079,-0.51999l0.03298,-0.01886l0.01793,-0.07163c0.09296,-0.17361 0.16637,-0.35994 0.21648,-0.55501l0.14801,-0.1727l0.1521,-0.30408l0.54693,-0.54708l0.20701,-0.34493l0.26179,-0.30544l0.09719,-0.19429l0.01624,-0.02436l0.08933,-0.08123l0.49144,-0.42139l0.00215,-0.03829l0.17791,-0.2668l0.32525,-0.32531l0.20703,-0.34491l0.17312,-0.20197l1.97056,-1.97071l0.01062,0.00072l0.40143,-0.36497l0.12919,0.23552l0.09315,0.13967l0.06173,0.24647l0.12962,0.24287l0.05984,0.26866l0.25401,0.50761l0.1106,0.33133l0.09663,0.15178l0.03911,0.17558l0.03117,0.06229l0.01092,0.04359l0.12484,0.5605l0.03117,0.06229l0.01092,0.04359l0.12485,0.5605l0.03117,0.06229l0.01535,0.06131l0.02292,0.022l0.00004,0.06962l0.13956,0.55703l0.12485,0.56048l0.03117,0.06229l0.01745,0.06963l0.02437,0.01394l0.20833,0.41627l0.0944,0.37676l0.12486,0.56046l0.03118,0.06229l0.01744,0.06963l0.02438,0.01394l0.26055,0.52058l0.13286,0.15495l0.00698,0.12446l0.37626,0.32251l0.24669,0.31106l0.12459,0.00685l0.15498,0.13284l0.3334,0.16658l1.2583,0.27893l0.57228,-0.38177l0.6865,-0.03858l0.83967,-0.97945l0.15219,-0.30409l0.71406,-0.71401l0.12833,-0.21373l0.18448,-0.16771l0.33388,-0.50048l0.05327,-0.14889l0.01424,-0.0166l0.95491,-0.95471l0.18783,-0.31277l0.31286,-0.18778l0.6676,-0.66737l0.18784,-0.31275l0.31286,-0.18777l1.05786,-1.05739l0.13697,0.32795l0.02515,0.10041l0.03103,0.40055l0.13642,0.40883l0.1436,0.57337l0.04614,0.08649l0.00757,0.0977l0.16682,0.49989l0.09662,0.1518l0.03911,0.17561l0.00583,0.01166l0.02538,0.32741l0.20524,0.61498l0.00028,0.43098l-0.01555,0.02335l0.0156,0.07007l0.00005,0.06963l0.13956,0.55711l0.12488,0.56056l0.03117,0.06229l0.01744,0.06964l0.02082,0.01191l0.00028,0.40456l0.3131,1.24954l0.08567,0.04901l-0.05614,0.0198l0.97859,0.83829l0.33354,0.16651l1.25887,0.27871l0.24264,-0.16178l0.28115,0.07644l1.1066,-0.66408l0.33397,-0.33374l0.20726,-0.3449l0.17329,-0.20198l0.12052,-0.12042l0.20726,-0.34489l0.26206,-0.30542l0.15229,-0.30401l0.04655,-0.04651l0.12841,-0.21367l0.18458,-0.16768l0.19645,-0.29425l0.32557,-0.32526l0.20723,-0.34483l0.26205,-0.30537l0.2339,-0.46693l0.08415,-0.09806l0.37692,-0.32279l0.007,-0.12456l0.04433,-0.05166l0.12051,-0.12038l0.20721,-0.34479l0.26203,-0.30532l0.15225,-0.30394l0.04654,-0.0465l0.12838,-0.21362l0.13526,-0.12284l0.03335,-0.00187l0.08773,-0.10222l0.28507,0.44765l0.2957,0.49251l0.0493,0.04924l0.03858,0.06057l0.02757,0.00549l0.05137,0.05131l0.03574,0.0982l0.04448,0.21739l0.16617,0.09479l0.2539,0.42287l0.0465,0.04645l0.67145,1.34219l-0.01492,0.2677l0.13295,0.18082l0.07787,0.31165l0.16618,0.09478l0.05282,0.08795l0.04336,0.17353l0.12964,0.24291l0.05967,0.26878l0.33351,0.66661l0.26181,0.30504l0.20692,0.34455l0.38023,0.37966l0.152,0.30377l0.13298,0.15493l0.00687,0.12455l0.37676,0.32236l0.32289,0.37615l0.12476,0.00686l0.15519,0.13277l0.18774,0.09363l0.01395,0.02438l0.06978,0.01738l0.06241,0.03113l0.56177,0.12435l0.55831,0.13908l0.0698,-0.00003l0.07022,0.01555l0.02342,-0.01558l0.17055,-0.00007l1.25262,-0.31297l0.0491,-0.08573l0.09877,-0.0055l0.84044,-0.97852l0.16706,-0.33337l0.03914,-0.17567l0.09682,-0.15183l0.02208,-0.06609l0.16995,-0.28265l0.23904,-0.37488l0.4275,-0.4267l0.00499,-0.0007l0.01116,-0.01542l0.1902,-0.18985l0.25936,-0.43144l0.29513,-0.40789l0.07311,-0.18244l0.10602,-0.07938l0.22455,-0.27587l0.27635,-0.22414l0.39407,-0.52453l0.54193,-0.54101l0.1586,-0.2639l0.21797,-0.21761l0.34217,-0.5694l0.82465,-0.82333l0.52529,-0.39333l0.30387,-0.37345l0.16477,-0.16453l0.05552,0.06929l0.97833,1.30231l0.1399,0.11351l0.09276,0.15433l0.21352,0.21319l0.43967,0.87762l0.26806,0.6687l0.14381,0.43037l0.09682,0.15185l0.03916,0.17568l0.25448,0.50789l0.41465,1.24065l0.14389,0.57364l0.60796,1.13733l0.45924,0.12919l0.24326,0.36414l0.87942,-0.04826l0.84802,0.23867l0.3161,-0.3025l0.47616,-0.0261l0.83916,-0.978l0.09374,-0.18743l0.00665,-0.00379l0.02542,-0.05085l0.1248,-0.56067l0.05141,-0.13504l0.18309,-0.3661l0.0465,-0.04645l0.29565,-0.49253l0.30853,-0.48457l0.02202,-0.06609l0.08082,-0.13465l0.17306,-0.20172l0.12038,-0.12025l0.20682,-0.34458l0.2617,-0.30505l0.3186,-0.63712l0.04649,-0.04645l0.20683,-0.34458l0.26168,-0.30505l0.3186,-0.63713l0.19418,-0.194l0.12246,0.22923l0.05995,0.26887l0.11476,0.22911l0.05257,0.20963l0.0311,0.40083l0.16717,0.50026l0.03846,0.06034l0.0002,0.31945l-0.01558,0.02336l0.01564,0.07013l0.00004,0.06969l0.13985,0.55756l0.02577,0.11553l-0.01389,0.02083l0.01564,0.07013l0.00005,0.06968l0.13986,0.55758l0.02747,0.12313l0.00169,2.32068l0.00823,0.0328l-0.02372,0.10701l0.08102,0.12135l0.24833,0.98973l0.66678,0.38115l0.40475,0.60639l0.59865,-0.03274l0.52083,0.2978l0.63237,-0.36087l0.76624,-0.04192l0.66344,-0.77402l0.06135,0.00357l0.02664,-0.10626l0.02199,-0.02566l0.09712,-0.19407l0.24707,-0.37044l0.11244,-0.31435l0.17933,-0.28167l0.0257,-0.07698l0.38815,-0.48515l0.04612,-0.10054l0.08184,-0.07443l0.16009,-0.22028l0.32418,-0.24298l0.22413,-0.27587l0.21132,-0.14775l0.89349,-1.19112l0.20767,-0.20773l0.12815,-0.21348l0.18422,-0.16753l0.45052,-0.67557l0.03378,0.04568l0.00007,0.09435l-0.03833,0.11517l-0.03059,0.4009l-0.09728,0.39004l0.00044,0.65338l-0.02728,0.12312l-0.13904,0.55753l0.00005,0.0697l-0.01554,0.07012l0.0156,0.02339l0.00007,0.09792l-0.03832,0.11517l-0.03056,0.40093l-0.09727,0.39006l0.00185,2.50182l0.26776,1.06813l-0.00279,0.05102l0.01872,0.01248l0.02999,0.11963l1.04681,0.59885l1.00317,0.6694l0.12029,-0.02666l0.01952,0.01117l0.04433,-0.02532l0.95051,-0.21066l0.00178,0.00048l0.00233,-0.0014l0.1195,-0.02649l0.33339,-0.16659l0.3051,-0.26156l0.26461,-0.14677l0.32502,-0.32488l0.29401,-0.19604l0.15436,-0.14194l0.10059,-0.04607l0.35833,-0.2867l0.23696,-0.04726l0.14279,-0.0676l0.15758,-0.01202l0.50013,-0.16649l0.15182,-0.09659l0.17571,-0.03896l0.97826,-0.48887l-0.0258,0.02212l-0.00542,0.09864l-0.08572,0.04897l-0.18372,0.73684l-0.2913,0.58341l-0.02438,0.01393l-0.01738,0.06971l-0.03113,0.06234l-0.12432,0.56118l-0.13903,0.55772l0.00005,0.06973l-0.01554,0.07015l0.0139,0.02086l-0.02559,0.11556l-0.13903,0.55774l0.00004,0.06973l-0.01553,0.07015l0.01559,0.0234l0.00052,0.84127l-0.01557,0.02338l0.01563,0.07018l0.00005,0.06973l0.13971,0.55794l0.12499,0.56143l0.0312,0.06239l0.01746,0.06975l0.0244,0.01396l0.09386,0.18769l0.83934,0.97984l0.09859,0.00554l0.04904,0.08583l1.25049,0.31352l2.16715,0.00107l0.38991,-0.09739l0.40076,-0.03068l0.78618,-0.26197l0.94362,-0.13451l0.16028,-0.06529l0.173,-0.0057l0.83005,-0.23703l0.81667,0.00033l0.24158,-0.06035l0.24877,0.01196l1.6668,-0.33301l0.18458,-0.08745l0.20295,-0.02314l0.90887,-0.3408l0.37542,0.00014l-0.27141,0.40756l-0.15825,0.15838l-0.20667,0.34485l-0.26146,0.30533l-0.097,0.19427l-0.2469,0.37077l-0.05309,0.1489l-0.01422,0.01659l-0.12026,0.12036l-0.20667,0.34488l-0.1729,0.20192l-0.12026,0.12037l-0.20666,0.34488l-0.26147,0.30535l-0.097,0.19428l-0.01622,0.02437l-0.08924,0.08119l-0.49095,0.42116l-0.00212,0.03831l-0.17763,0.26677l-1.82453,1.82637l-0.20667,0.34493l-0.26146,0.3054l-0.16658,0.33367l-0.02651,0.11959l-0.0014,0.00234l0.00049,0.00178l-0.21087,0.95121l-0.02532,0.04438l0.01115,0.01953l-0.02669,0.12038l0.66835,1.00348l0.59779,1.04707l0.11951,0.02994l0.01247,0.01871l0.05098,-0.00283l1.06714,0.2673l0.85893,0.00016l1.03483,0.25916l0.03379,0.00001l0.03023,0.01513l2.92737,0.65165l0.94267,0.26972l1.02108,0.43815l0.29748,0.04806l0.07287,0.03171l-0.38551,0.28941l-0.02528,0.03115l-0.03645,0.01672l-0.83328,0.66729l-0.08531,0.11209l-0.12071,0.0725l-0.04646,0.04651l-0.3038,0.15204l-0.15496,0.13297l-0.12454,0.00692l-0.32249,0.37665l-0.37624,0.32285l-0.00073,0.01318l-1.45633,0.97194l-0.04778,0.05262l-0.06547,0.02759l-0.23985,0.18009l-0.25461,0.05664l-0.00178,-0.00048l-0.00233,0.0014l-0.11945,0.02657l-0.06231,0.03119l-0.06966,0.01743l-0.01393,0.02441l-0.18743,0.09383l-0.27738,0.23802l-0.07767,-0.01728l-0.09808,0.06547l-0.21353,0.04751l-0.06231,0.03119l-0.73632,0.18429l-0.38038,0.6665l-0.60569,0.40429l0.03321,0.59876l-0.29718,0.52069l0.36112,0.63279l0.04246,0.76646l0.77396,0.66418l0.07228,0.12666l0.10631,0.02659l0.02565,0.02202l0.19411,0.09715l0.87044,0.58091l0.0574,0.02052l0.0431,0.04315l0.83328,0.50046l0.26338,0.08022l0.23226,0.14794l0.23965,0.07994l0.54696,0.32849l0.24451,0.16316l0.41951,0.41996l-0.32688,0.13782l-0.61125,0.45897l-0.3128,0.20879l-0.36859,0.18454l-0.33148,0.11067l-0.28176,0.17953l-0.3145,0.1125l-0.22147,0.14784l-0.1824,0.0609l-0.05316,0.03387l-0.01653,-0.01103l-0.0701,0.01561l-0.06966,0.00001l-0.55734,0.13961l-0.12307,0.0274l-0.15655,0.00003l-0.02336,-0.01559l-0.0701,0.01561l-0.06966,0.00002l-0.55734,0.13961l-0.56081,0.1249l-0.06232,0.0312l-0.06967,0.01745l-0.01394,0.02441l-0.18747,0.09388l-0.97858,0.8398l-0.0055,0.09868l-0.08573,0.04906l-0.31293,1.25157l-0.00011,0.33372l0.11946,0.47899l-0.05037,0.18466l0.16519,0.2757l0.0778,0.31196l0.16596,0.09489l0.25363,0.4233l3.33254,3.33551l0.2135,0.12815l0.16745,0.18436l0.29399,0.19609l0.69917,0.69971l0.35226,0.47014l-1.02177,0.5359l-0.0787,0.01971l-0.26371,0.0001l-0.10348,-0.06102l0.02191,0.02277l-0.06231,-0.03116l-0.5608,-0.1245l-0.04361,-0.01089l-0.06231,-0.03116l-0.5608,-0.1245l-0.10421,-0.04386l-0.32438,-0.21617l-0.31445,-0.11234l-0.1903,-0.13875l-1.83154,-0.61029l-0.11979,-0.05513l-0.00383,-0.0067l-0.05079,-0.02541l-0.56081,-0.12448l-0.55733,-0.13921l-0.06968,0.00003l-0.0701,-0.01556l-0.02338,0.0156l-1.00376,0.00047l-1.25046,0.31345l-0.04904,0.08582l-0.09859,0.00554l-0.83928,0.97973l-0.1669,0.33376l-0.18687,0.83946l-0.09328,0.13995l0.03098,0.13987l-0.03114,0.13991l0.09312,0.13983l0.18592,0.8392l1.47349,2.95093l0.60831,1.37062l-0.39716,-0.17641l-2.90309,-1.6123l-0.0538,-0.01442l-0.04228,-0.03625l-1.97075,-0.98485l-0.04645,-0.04647l-0.49262,-0.29549l-0.48466,-0.30836l-0.0661,-0.022l-0.06158,-0.03693l-0.02711,0.00741l-0.17675,-0.05883l-0.50783,-0.25377l-1.25826,-0.27889l-0.57232,0.3819l-0.6865,0.03865l-0.83979,0.97974l-0.09392,0.18766l-0.02441,0.01396l-0.01748,0.06973l-0.03122,0.06238l-0.12511,0.56129l-0.13983,0.55781l-0.00005,0.06972l-0.01564,0.07015l0.01557,0.02337l-0.00367,5.34028l0.07451,0.29869l-0.00019,0.30793l0.09186,0.36822l-0.00015,0.24538l-0.97756,-0.89575l-0.01033,-0.0056l-0.00657,-0.00975l-1.66707,-1.49968l-0.05331,-0.02826l-0.03603,-0.04838l-1.83396,-1.49952l-0.04899,-0.02307l-0.03413,-0.04201l-0.66696,-0.49979l-0.20958,-0.08808l-0.1726,-0.14784l-0.52111,-0.26014l-0.01393,-0.02438l-0.06972,-0.01738l-0.06235,-0.03112l-0.56126,-0.12426l-0.55779,-0.13896l-0.06974,0.00005l-0.07016,-0.01553l-0.0234,0.01561h-0.0071l-0.02338,-0.01557l-0.07019,0.01564l-0.06974,0.00006l-0.55803,0.13981l-0.56152,0.12509l-0.0624,0.03122l-0.06976,0.01747l-0.01397,0.0244l-0.15815,0.07911l-0.03827,-0.00261l-0.47946,0.43558l-0.49196,0.4214l-0.00216,0.03828l-0.64984,0.97331l-0.11266,0.31464l-0.17968,0.28191l-0.0385,0.11518l-0.25713,0.34237l-0.08843,0.20954l-0.14818,0.17267l-0.33416,0.66702l-0.05996,0.26887l-0.12986,0.24305l-0.10046,0.40057l-0.04404,0.08792l-0.03918,0.17571l-0.09681,0.15189l-0.39523,1.1828l-0.14791,0.22154l-0.05327,0.14883l-0.103,0.12001l-0.595,1.18786l-0.02442,0.01394l-0.01746,0.06968l-0.03122,0.06233l-0.01503,0.06742l-0.17889,0.15318l-0.00029,0.00521l-0.62566,-0.38441l-1.42989,-1.57102l-0.05078,-0.03379l-0.03139,-0.05227l-0.51557,-0.51489l0.00073,-0.0106l-0.4355,-0.47843l-0.42135,-0.49093l-0.03831,-0.00211l-0.11417,-0.07598l0.00826,-0.11897l-0.31932,-0.35076l-0.25483,-0.39996l-0.13354,-0.02662l-0.16007,-0.17582l-0.29443,-0.19594l-0.48389,-0.48313l-0.19626,-0.29398l-0.18451,-0.16745l-0.12826,-0.21349l-1.28889,-1.28666l-0.04431,-0.05161l-0.0069,-0.12453l-0.37689,-0.32244l-0.08412,-0.09796l-0.06676,-0.13333l-0.2829,-0.32944l-0.27413,-0.43003l-0.11482,-0.0229l-0.16812,-0.19576l-1.12534,-0.06226l-1.06713,-0.21296l-0.13138,0.14655l-0.19673,-0.01092l-0.60359,0.90365l-0.75138,0.83821l0.01985,0.25712l-0.058,-0.00253l0.11032,0.49761l0.03317,0.43269l0.0383,0.11512l-0.00002,0.0943l0.01845,0.19741l-0.03192,-0.02406l0.18902,0.5303l0.1363,0.54631l0.07342,0.04202l0.03376,0.09472l0.01206,0.01812l0.0296,0.38569l0.0383,0.11512l-0.00001,0.0943l0.09728,0.38988l0.03075,0.40068l0.03831,0.11513l-0.00316,3.04613l-0.11606,0.28976l-0.45029,0.89938l-0.48296,-0.60282l-0.04502,-0.03425l-0.02582,-0.05028l-1.14867,-1.31081l-0.77436,-0.9278l-0.32689,-0.43515l-0.06599,-0.13173l-0.262,-0.30519l-0.20717,-0.34467l-0.33394,-0.33343l-0.1525,-0.09139l-0.04623,-0.09228l-0.08097,-0.09431l-0.13479,-0.53776l-0.66685,-0.38062l-0.40464,-0.60588l-0.59895,0.03299l-0.52096,-0.2974l-0.63285,0.36093l-0.76665,0.04218l-0.66405,0.77383l-0.12665,0.07225l-0.02657,0.10631l-0.02201,0.02565l-0.1347,0.23858l-0.27971,1.25772l0.02083,0.0313l-0.07407,0.29611l-0.27829,0.83527l-0.35108,0.70183l-0.24715,0.37044l-0.05314,0.14877l-0.10288,0.11992l-0.20008,0.39997l-0.28419,0.33124l-0.14219,0.12173l-0.03546,0.00195l-0.0918,0.10701l-0.10712,0.09171l-0.00196,0.03543l-0.02688,0.03133l-0.02064,-0.01719l-0.58743,-0.58683l-0.21383,-0.12823l-0.16778,-0.18436l-0.0841,-0.05603l-0.03774,-0.05654l-0.00214,-0.03827l-0.43819,-0.37528l-0.25664,-0.51239l-0.13306,-0.15508l-0.007,-0.12456l-0.37686,-0.32278l-0.08413,-0.09805l-0.06681,-0.1334l-0.13307,-0.15509l-0.007,-0.12457l-0.33928,-0.2906l-0.02159,-0.09686l-0.16705,-0.33352l-0.84005,-0.97907l-0.09868,-0.00554l-0.04908,-0.08577l-1.25155,-0.31338l-0.17039,-0.00011l-0.0234,-0.0156l-0.07016,0.01553l-0.06973,-0.00005l-0.55776,0.13903l-0.56124,0.12431l-0.06234,0.03112l-0.06972,0.01738l-0.01393,0.02438l-1.78952,0.89345l-0.91559,0.39175l-0.47267,0.11785l-0.24305,0.12947l-0.26896,0.05959l-2.001,0.99926l-0.15501,0.1328l-0.12462,0.00685l-0.32254,0.37624l-0.37635,0.32244l0.05425,0.04542l-0.13283,0.15498l-0.12464,0.20624l-0.23722,-0.17254l-0.09203,-0.18385l-0.01093,-0.04363l-0.12502,-0.56108l-0.03122,-0.06235l-0.01746,-0.0697l-0.02441,-0.01396l-0.12511,-0.24993l-0.01093,-0.04363l-0.02743,-0.12313l-0.00149,-2.48761l-0.15962,-0.63692l0.03074,-0.15418l-0.08944,-0.08004l-0.09518,-0.37978l-0.91215,-0.5216l-0.78307,-0.70075l-0.39024,0.02978l-0.10418,-0.05957l-0.13648,0.07794l-0.65445,0.04995l-0.50017,0.16647l-0.40606,0.25829l-0.43052,0.2151l-2.09971,1.79966l-0.56593,0.28278l-0.83169,0.27687l-0.15183,0.09659l-0.08208,0.0182l0.31984,-0.22877l0.16752,-0.18422l0.21348,-0.12815l0.045,-0.05448l0.12692,-0.11005l0.12448,-0.00698l0.24727,-0.31039l0.21735,-0.18758l0.03541,-0.00199l0.01646,-0.04119l0.10704,-0.09174l0.00195,-0.03545l0.12175,-0.14209l0.37626,-0.32251l0.00685,-0.12461l0.13281,-0.155l0.33311,-0.66692l0.18595,-0.83899l0.09313,-0.1398l-0.03115,-0.13987l0.03099,-0.13983l-0.09329,-0.1399l-0.18691,-0.83925l-0.16693,-0.33367l-0.83945,-0.97951l-0.09861,-0.00554l-0.04905,-0.0858l-1.25066,-0.31345l-2.16743,-0.00115l-0.09511,0.02374l-0.09669,-0.01647l-2.16726,0.16573l-0.14544,0.04844l-0.15317,-0.00737l-1.42419,0.28435l-5.90295,-0.00247l0.18024,-0.10436l0.17563,-0.03907l1.08786,-0.54396l0.40039,-0.10019l0.24293,-0.12957l0.26873,-0.05978l0.08787,-0.04394l0.40039,-0.10019l0.15174,-0.08093l0.17037,-0.02329l0.83328,-0.33342l0.03922,-0.02832l0.04765,-0.00835l1.24668,-0.55419l0.56147,-0.11246l0.47285,-0.22401l0.15484,0.00852l-0.00807,-0.07218l0.45684,-0.21636l0.31222,-0.93837l0.54803,-0.8229l-0.1099,-0.49394l0.04548,-0.1367l-0.10196,-0.11713l-0.08623,-0.38759l0.00048,-0.00178l-0.0014,-0.00233l-0.0266,-0.11958l-0.16684,-0.33371l-0.26172,-0.30553l-0.20695,-0.34501l-0.66706,-0.66757l-0.07299,-0.04385l-0.04857,-0.06998l-1.3161,-1.15265l-1.81655,-1.65292l-0.10591,-0.05695l-0.07583,-0.0934l-0.66688,-0.50069l-0.06548,-0.02761l-0.0478,-0.05263l-1.05871,-0.70659l0.01868,-0.00935l0.13999,-0.03757l0.56074,-0.12464l-0.03406,-0.00444l0.06966,-0.01741l0.01393,-0.0244l0.52074,-0.2605l0.97812,-0.83911l0.00545,-0.09866l0.08571,-0.049l0.3122,-1.25123l-0.00004,-0.1704l0.01557,-0.02338l-0.0156,-0.07018l-0.00001,-0.06974l-0.13946,-0.5579l-0.12474,-0.56138l-0.03116,-0.06238l-0.01743,-0.06974l-0.02438,-0.01395l-0.2605,-0.52138l-0.04624,-0.054l-0.01924,-0.06846l-0.66689,-1.16804l-0.32464,-0.3391l-0.28435,-0.37358l-0.83344,-0.66748l-0.10057,-0.04615l-0.07443,-0.08195l-0.79409,-0.52999l-0.15831,-0.15847l-0.09912,-0.05954l-0.00445,-0.00611l0.10558,-0.00929l0.01398,0.00931h0.04958l0.55727,-0.13941l0.56075,-0.12469l0.0623,-0.03118l0.06966,-0.01743l0.01393,-0.02441l0.12172,-0.06091l1.09911,-0.47147l0.05985,-0.04554l0.07339,-0.01632l0.33332,-0.16682l0.97822,-0.8394l0.00547,-0.09868l0.08571,-0.04903l0.31244,-1.25142l-0.00001,-0.33372l-0.11963,-0.47904l0.0503,-0.18464l-0.16527,-0.27577l-0.0779,-0.312l-0.16598,-0.09495l-0.25375,-0.4234l-0.04647,-0.04651l-0.31855,-0.63784l-0.26153,-0.30546l-0.20674,-0.34498l-0.52694,-0.52751l0.27021,-0.03866l0.15566,-0.00001l0.38988,-0.09761l0.4007,-0.03088l0.50002,-0.1669l0.41612,-0.26513l0.19088,-0.01064l0.20908,-0.24419l0.27102,-0.17269l0.03752,-0.18768l0.32102,-0.37494l0.16671,-0.33374l0.13692,-0.61649l0.12241,-0.1543l-0.03348,-0.24607l0.05385,-0.24244l-0.10914,-0.16391l-0.08512,-0.62569l-0.66635,-1.66841l-0.21554,-0.2988l-0.15336,-0.33507l-0.59875,-0.74928l-0.08741,-0.13129l-0.00921,-0.02766l0.0074,-0.02712l-0.03693,-0.06163l-0.02202,-0.06615l-0.30829,-0.48506l-0.29543,-0.49301l-0.04925,-0.0493l-0.03853,-0.06063l-0.02754,-0.0055l-0.25898,-0.25922l-0.25807,-0.34447l-0.23241,-0.46544l-0.26148,-0.30536l-0.20668,-0.34489l-0.11249,-0.11259l1.71855,-0.28717l1.12653,-0.00035l0.38995,-0.09769l0.40074,-0.03099l0.33228,-0.11096l0.96075,-0.24072l0.04901,-0.08582l0.09858,-0.00552l0.839,-0.9796l0.16682,-0.33374l0.22775,-1.02399l0.05614,-0.09529l-0.01949,-0.06945l0.01567,-0.07044l-0.06125,-0.09198l-0.28331,-1.00954l-0.6663,-1.16748l-0.23098,-0.24121l-0.17172,-0.28652l-3.56902,-3.5713l0.03811,-0.04448l1.16792,-2.33562z" fill="#88dc43" stroke-width="0.25"/><path d="M210.50719,165.99708l0.03909,0.04561l-0.06225,0.09338z" data-paper-data="{&quot;noHover&quot;:false,&quot;origItem&quot;:[&quot;Path&quot;,{&quot;applyMatrix&quot;:true,&quot;segments&quot;:[[324.1388,300.40273],[321.80547,305.0694],[321.72932,305.15825],[328.86887,312.2978],[329.21247,312.87047],[329.67455,313.35264],[331.00788,315.68597],[331.57526,317.70332],[331.69782,317.88716],[331.66655,318.02789],[331.70558,318.16667],[331.59341,318.35702],[331.1388,320.40273],[330.80547,321.0694],[329.12842,323.02596],[328.93129,323.03691],[328.83333,323.20833],[326.91222,323.68861],[326.24781,323.91008],[325.44642,323.97173],[324.66667,324.16667],[322.41381,324.16667],[318.97717,324.73944],[319.2022,324.96447],[319.61573,325.65368],[320.1388,326.26393],[320.60384,327.19401],[321.12013,327.8824],[321.63818,328.40045],[321.69325,328.41146],[321.77035,328.53262],[321.86887,328.63113],[322.45995,329.61628],[323.07675,330.58553],[323.12081,330.7177],[323.19469,330.84084],[323.17992,330.89502],[323.19834,330.9503],[323.37322,331.21263],[324.57101,332.70986],[324.87786,333.37935],[325.30905,333.97638],[326.64238,337.30971],[326.81283,338.55968],[327.03115,338.88716],[326.92353,339.37146],[326.99056,339.86302],[326.7458,340.17124],[326.47214,341.40273],[326.1388,342.0694],[325.49685,342.81834],[325.42187,343.19325],[324.87986,343.53817],[324.46175,344.02596],[324.08,344.04717],[323.24781,344.57675],[322.24781,344.91008],[321.44642,344.97173],[320.66667,345.16667],[320.35534,345.16667],[319.81494,345.24387],[320.86887,346.2978],[321.28239,346.98701],[321.80547,347.59727],[322.44261,348.87154],[322.53553,348.96447],[323.04304,349.81031],[323.375,350],[323.53082,350.62327],[323.86136,351.17417],[323.76076,351.54304],[324,352.5],[324,353.16667],[323.375,355.66667],[323.20358,355.76462],[323.19263,355.96175],[321.23607,357.6388],[320.5694,357.97214],[320.42263,358.00475],[320.30293,358.09573],[318.10465,359.03785],[317.8612,359.15957],[317.83333,359.20833],[317.69401,359.24316],[317.5694,359.30547],[316.4479,359.55469],[315.33333,359.83333],[315.19401,359.83333],[315.05382,359.86449],[315.0071,359.83333],[314.99506,359.83333],[315.00398,359.84553],[315.2022,359.96447],[315.51878,360.28105],[317.10683,361.33975],[317.25567,361.50347],[317.45681,361.59566],[319.12348,362.92899],[319.69207,363.67527],[320.34122,364.35264],[321.67455,366.68597],[321.71301,366.82273],[321.80547,366.9306],[322.32624,367.97214],[322.375,368],[322.40983,368.13932],[322.47214,368.26393],[322.72136,369.38544],[323,370.5],[323,370.63932],[323.03115,370.77951],[323,370.82624],[323,371.16667],[322.375,373.66667],[322.20358,373.76462],[322.19263,373.96175],[320.23607,375.6388],[319.19453,376.15957],[319.16667,376.20833],[319.02735,376.24316],[318.90273,376.30547],[317.78123,376.55469],[317.69401,376.5765],[317.65665,376.59518],[319.7735,378.00642],[319.86907,378.11154],[320,378.16667],[321.33333,379.16667],[321.48492,379.35323],[321.6967,379.46697],[325.32824,382.76837],[327.95919,385.07045],[328.05626,385.21024],[328.2022,385.2978],[329.53553,386.63113],[329.94906,387.32034],[330.47214,387.9306],[330.80547,388.59727],[330.85856,388.83618],[330.86136,388.84084],[330.86039,388.8444],[331.03248,389.61881],[331.23624,389.85275],[331.14517,390.12594],[331.36449,391.11284],[330.26793,392.75768],[329.64279,394.63308],[328.72913,395.06587],[328.5694,395.30547],[328.25964,395.28826],[327.31391,395.73624],[326.19081,395.96086],[323.69736,397.06906],[323.60206,397.08574],[323.52362,397.14238],[321.85695,397.80905],[321.51616,397.85552],[321.21268,398.01738],[320.41182,398.21759],[320.23607,398.30547],[319.69854,398.42492],[319.21268,398.68405],[318.41182,398.88426],[316.23607,399.97214],[315.88476,400.05021],[315.70175,400.16667],[327.5049,400.16667],[330.35275,399.5971],[330.65899,399.61168],[330.94985,399.51473],[335.28318,399.18139],[335.47647,399.21422],[335.66667,399.16667],[340,399.16667],[342.5,399.79167],[342.59795,399.96309],[342.79508,399.97404],[344.47214,401.9306],[344.80547,402.59727],[345.17815,404.27432],[345.36449,404.55382],[345.30237,404.83333],[345.36449,405.11284],[345.17815,405.39235],[344.80547,407.0694],[344.1388,408.40273],[343.87313,408.71268],[343.85929,408.96175],[343.10677,409.60677],[342.86323,409.8909],[342.85929,409.96175],[342.64523,410.14523],[342.46175,410.35929],[342.3909,410.36323],[342.10677,410.60677],[341.46175,411.35929],[341.21268,411.37313],[341.10945,411.46162],[340.86887,411.7022],[340.44183,411.95842],[340.10683,412.32692],[339.61782,412.65293],[339.78191,412.61646],[340.08553,412.42325],[341.74842,411.86895],[342.88005,411.30314],[347.07938,407.70372],[347.94022,407.2733],[348.75219,406.75658],[349.75219,406.42325],[351.06042,406.32262],[351.33333,406.16667],[351.54149,406.28561],[352.32155,406.22561],[353.88585,407.62525],[355.70833,408.66667],[355.89808,409.42567],[356.07675,409.58553],[356.0151,409.89375],[356.33333,411.16667],[356.33333,416.13932],[356.38803,416.38544],[356.40983,416.47265],[356.65957,416.97214],[356.70833,417],[356.74316,417.13932],[356.80547,417.26393],[357.05469,418.38544],[357.0765,418.47265],[357.26022,418.8401],[357.73412,419.18475],[357.8612,418.9306],[358.12687,418.62065],[358.14071,418.37158],[358.89323,417.72656],[359.53825,416.97404],[359.78732,416.9602],[360.09727,416.69453],[364.09727,414.69453],[364.63479,414.57508],[365.12066,414.31595],[366.06531,414.07979],[367.89535,413.29549],[371.47214,411.5071],[371.5,411.45833],[371.63932,411.4235],[371.76393,411.3612],[372.88544,411.11197],[374,410.83333],[374.13932,410.83333],[374.27951,410.80218],[374.32624,410.83333],[374.66667,410.83333],[377.16667,411.45833],[377.26462,411.62975],[377.46175,411.64071],[379.1388,413.59727],[379.47214,414.26393],[379.51517,414.45757],[380.19263,415.03825],[380.20646,415.28732],[380.47214,415.59727],[380.60547,415.86393],[380.77344,416.0599],[381.52596,416.70492],[381.5398,416.95398],[381.80547,417.26393],[382.31763,418.28825],[383.19263,419.03825],[383.19688,419.11477],[383.27222,419.22778],[383.44017,419.33975],[383.77516,419.70824],[384.2022,419.96447],[385.37516,421.13742],[385.41638,421.17177],[385.4701,421.1091],[385.47404,421.03825],[385.6881,420.85477],[385.87158,420.64071],[385.94243,420.63677],[386.22656,420.39323],[386.79453,419.7306],[387.19453,418.9306],[387.40015,418.69071],[387.50642,418.39317],[388.00041,417.65217],[388.70228,416.24842],[389.19586,414.7677],[389.34392,414.17545],[389.30218,414.11284],[389.8612,411.59727],[390.19453,410.9306],[390.23851,410.87929],[390.29167,410.66667],[390.54469,410.52208],[391.87158,408.97404],[393.40262,408.88898],[394.66667,408.16667],[395.70671,408.76098],[396.90273,408.69453],[397.71031,409.90589],[399.04167,410.66667],[399.31051,411.74203],[399.47214,411.9306],[399.56439,412.11512],[399.86887,412.2978],[400.53553,412.96447],[400.94906,413.65368],[401.47214,414.26393],[401.60384,414.52735],[402.25646,415.3975],[403.80255,417.25281],[406.09622,419.87414],[406.14779,419.9747],[406.23768,420.04319],[407.20212,421.24875],[408.10152,419.44995],[408.33333,418.87042],[408.33333,412.97805],[408.25658,412.74781],[408.19494,411.94642],[408,411.16667],[408,410.97805],[407.92325,410.74781],[407.86391,409.97641],[407.83975,409.94017],[407.77209,409.75072],[407.625,409.66667],[407.35184,408.57402],[406.97303,407.51335],[407.04879,407.36183],[407,407.16667],[407,406.97805],[406.92325,406.74781],[406.85668,405.88241],[406.63551,404.88716],[406.76516,404.69268],[406.72561,404.17845],[408.22569,402.50189],[409.4306,400.69453],[409.82328,400.71635],[410.08553,400.42325],[412.21552,400.84925],[414.46175,400.97404],[414.7974,401.36562],[415.02659,401.41146],[415.57395,402.2716],[416.1388,402.9306],[416.27214,403.19727],[416.4401,403.39323],[417.19263,404.03825],[417.20646,404.28732],[417.29495,404.39055],[419.86887,406.96447],[420.12509,407.3915],[420.49358,407.7265],[420.88562,408.31455],[421.85211,409.28105],[422.44017,409.67308],[422.7599,410.02479],[423.02659,410.07813],[423.53571,410.87818],[424.17361,411.57986],[424.1572,411.81777],[424.38523,411.96979],[424.46175,411.97404],[425.30353,412.95611],[426.17361,413.9132],[426.17214,413.93441],[427.2022,414.96447],[427.26493,415.06901],[427.36637,415.13664],[430.22345,418.27943],[431.47346,419.04867],[431.47404,419.03825],[431.83124,418.73208],[431.8612,418.59727],[431.9235,418.47265],[431.95833,418.33333],[432.0071,418.30547],[433.19453,415.9306],[433.40015,415.69071],[433.50642,415.39317],[433.80166,414.9503],[434.58992,412.58553],[434.78313,412.28191],[434.8612,411.9306],[434.94907,411.75485],[435.14929,410.95399],[435.40841,410.46813],[435.52786,409.9306],[436.19453,408.59727],[436.4903,408.2522],[436.66667,407.83333],[437.17983,407.14911],[437.25658,406.91886],[437.61513,406.35543],[437.83975,405.7265],[439.13645,403.78144],[439.14071,403.70492],[440.12278,402.86314],[441.07986,401.99306],[441.15633,401.99833],[441.47214,401.84043],[441.5,401.79167],[441.63932,401.75684],[441.76393,401.69453],[442.88544,401.44531],[444,401.16667],[444.13932,401.16667],[444.27951,401.13551],[444.32624,401.16667],[444.34043,401.16667],[444.38716,401.13551],[444.52735,401.16667],[444.66667,401.16667],[445.78123,401.44531],[446.90273,401.69453],[447.02735,401.75684],[447.16667,401.79167],[447.19453,401.84043],[448.23607,402.3612],[448.58114,402.65697],[449,402.83333],[450.33333,403.83333],[450.4016,403.91736],[450.49952,403.96355],[454.16619,406.96355],[454.23825,407.06031],[454.34482,407.11686],[457.67816,410.11686],[457.69129,410.13636],[457.71196,410.14756],[459.66667,411.93938],[459.66667,411.44886],[459.48262,410.71268],[459.48262,410.09715],[459.33333,409.5],[459.33333,398.82624],[459.30218,398.77951],[459.33333,398.63932],[459.33333,398.5],[459.61197,397.38544],[459.8612,396.26393],[459.9235,396.13932],[459.95833,396],[460.0071,395.97214],[460.19453,395.59727],[461.87158,393.64071],[463.24371,393.56448],[464.38716,392.80218],[466.90273,393.3612],[467.91824,393.86895],[468.27164,393.98675],[468.32583,393.97197],[468.44897,394.04586],[468.58114,394.08992],[469.55039,394.70671],[470.53553,395.2978],[470.62846,395.39073],[474.5694,397.3612],[474.65397,397.43368],[474.76155,397.46255],[480.5672,400.68791],[481.3614,401.04089],[480.14374,398.30115],[477.19453,392.40273],[476.82185,390.72568],[476.63551,390.44618],[476.69763,390.16667],[476.63551,389.88716],[476.82185,389.60765],[477.19453,387.9306],[477.52786,387.26393],[479.20492,385.30737],[479.40205,385.29642],[479.5,385.125],[482,384.5],[484.0071,384.5],[484.05382,384.46885],[484.19401,384.5],[484.33333,384.5],[485.4479,384.77864],[486.5694,385.02786],[486.69401,385.09017],[486.83333,385.125],[486.8612,385.17376],[486.91824,385.20228],[490.58114,386.42325],[491.14457,386.7818],[491.7735,387.00642],[492.42221,387.43888],[492.4479,387.44531],[493.5694,387.69453],[493.69401,387.75684],[493.78123,387.77864],[494.90273,388.02786],[495.02735,388.09017],[495.16667,388.125],[495.19048,388.16667],[495.71781,388.16667],[495.87516,388.12733],[497.91797,387.05729],[497.2132,386.1176],[495.81455,384.71895],[495.2265,384.32692],[494.8915,383.95842],[494.46447,383.7022],[487.7978,377.03553],[487.29029,376.18969],[486.95833,376],[486.80251,375.37673],[486.47197,374.82583],[486.57257,374.45696],[486.33333,373.5],[486.33333,372.83333],[486.95833,370.33333],[487.12975,370.23538],[487.14071,370.03825],[489.09727,368.3612],[489.47214,368.17376],[489.5,368.125],[489.63932,368.09017],[489.76393,368.02786],[490.88544,367.77864],[492,367.5],[492.13932,367.5],[492.27951,367.46885],[492.32624,367.5],[492.63932,367.5],[492.88544,367.44531],[494,367.16667],[494.13932,367.16667],[494.27951,367.13551],[494.31257,367.15756],[494.41886,367.08992],[494.78363,366.96833],[495.2265,366.67308],[495.85543,366.44846],[496.41886,366.08992],[497.08176,365.86895],[497.81884,365.50041],[498.44436,365.0834],[499.66667,364.16667],[500.32036,363.89143],[499.48122,363.05229],[498.99216,362.72625],[497.89817,362.06985],[497.41886,361.91008],[496.95431,361.61446],[496.42752,361.45413],[494.76085,360.45413],[494.67465,360.36792],[494.55983,360.32692],[492.81884,359.16626],[492.4306,358.97214],[492.37929,358.92816],[492.16667,358.875],[492.02208,358.62198],[490.47404,357.29508],[490.38898,355.76405],[489.66667,354.5],[490.26098,353.45996],[490.19453,352.26393],[491.40589,351.45636],[492.16667,350.125],[493.63932,349.75684],[493.76393,349.69453],[494.19098,349.59963],[494.38716,349.46885],[494.54251,349.50337],[495.09727,349.02786],[495.47214,348.84043],[495.5,348.79167],[495.63932,348.75684],[495.76393,348.69453],[496.00284,348.64144],[496.00751,348.63864],[496.01107,348.63961],[496.52029,348.52645],[497,348.16667],[497.13093,348.11154],[497.2265,348.00642],[500.13924,346.06459],[500.14071,346.03825],[500.89323,345.39323],[501.53825,344.64071],[501.78732,344.62687],[502.09727,344.3612],[502.70487,344.05739],[502.7978,343.96447],[503.03923,343.81961],[503.20986,343.59566],[504.87652,342.26232],[504.94943,342.22891],[505,342.16667],[505.77106,341.58837],[505.62535,341.52502],[505.0304,341.42906],[502.98835,340.55389],[501.10311,340.01525],[495.24868,338.71427],[495.18824,338.68405],[495.12066,338.68405],[493.05114,338.16667],[491.33333,338.16667],[489.19922,337.63314],[489.09727,337.6388],[489.07234,337.60142],[488.83333,337.54167],[487.63829,335.45033],[486.30218,333.44618],[486.35562,333.20568],[486.33333,333.16667],[486.384,333.07801],[486.80628,331.17773],[486.80531,331.17417],[486.80811,331.16951],[486.8612,330.9306],[487.19453,330.26393],[487.71761,329.65368],[488.13113,328.96447],[491.78105,325.31455],[492.13645,324.78144],[492.14071,324.70492],[493.12278,323.86314],[493.30129,323.70086],[493.33374,323.65217],[493.52786,323.26393],[494.05094,322.65368],[494.46447,321.96447],[494.70505,321.72388],[495.05094,321.32034],[495.46447,320.63113],[495.70505,320.39055],[495.73348,320.35738],[495.83975,320.05983],[496.33374,319.31884],[496.52786,318.9306],[497.05094,318.32034],[497.46447,317.63113],[497.78105,317.31455],[498.32408,316.5],[497.57334,316.5],[495.75562,317.18165],[495.34976,317.22803],[494.98058,317.4029],[491.64725,318.06957],[491.1498,318.04588],[490.66667,318.16667],[489.03361,318.16667],[487.37361,318.64095],[487.02766,318.65248],[486.70711,318.78308],[484.82009,319.05265],[483.24781,319.57675],[482.44642,319.63839],[481.66667,319.83333],[477.33333,319.83333],[474.83333,319.20833],[474.73538,319.03691],[474.53825,319.02596],[472.8612,317.0694],[472.67376,316.69453],[472.625,316.66667],[472.59017,316.52735],[472.52786,316.40273],[472.27864,315.28123],[472,314.16667],[472,314.02735],[471.96885,313.88716],[472,313.84043],[472,312.15957],[471.96885,312.11284],[472,311.97265],[472,311.83333],[472.27864,310.71877],[472.32996,310.48784],[472.30218,310.44618],[472.33333,310.30599],[472.33333,310.16667],[472.61197,309.0521],[472.8612,307.9306],[472.9235,307.80599],[472.95833,307.66667],[473.0071,307.6388],[473.59017,306.47265],[473.95833,305],[474.12975,304.90205],[474.14071,304.70492],[474.19231,304.66068],[472.23607,305.6388],[471.88476,305.71687],[471.58114,305.91008],[470.58114,306.24342],[470.26612,306.26765],[469.98058,306.4029],[469.50684,306.49765],[468.79014,307.07101],[468.589,307.1632],[468.44017,307.32692],[467.85211,307.71895],[467.2022,308.36887],[466.51299,308.78239],[465.90273,309.30547],[465.23607,309.6388],[464.99716,309.69189],[464.99249,309.69469],[464.98893,309.69372],[463.08866,310.116],[463,310.16667],[462.96099,310.14438],[462.72049,310.19782],[460.71633,308.86171],[458.625,307.66667],[458.56525,307.42766],[458.52786,307.40273],[458.53353,307.30078],[458,305.16667],[458,300.16667],[458.19494,299.38691],[458.25658,298.58553],[458.33333,298.35528],[458.33333,298.15957],[458.30218,298.11284],[458.33333,297.97265],[458.33333,297.83333],[458.61197,296.71877],[458.66667,296.47265],[458.66667,295.16667],[458.86161,294.38691],[458.92325,293.58553],[459,293.35528],[459,293.16667],[459.06112,292.92221],[458.16025,294.2735],[457.79176,294.6085],[457.53553,295.03553],[457.12013,295.45094],[455.33333,297.83333],[454.78161,298.28161],[454.33333,298.83333],[453.68517,299.31946],[453.49358,299.60683],[453.32987,299.75567],[453.23768,299.95681],[452.46142,300.92713],[452.41008,301.08114],[452.05154,301.64457],[451.82692,302.2735],[451.33292,303.01449],[451.1388,303.40273],[451.09482,303.45405],[451.04167,303.66667],[450.78865,303.81125],[449.46175,305.35929],[447.93072,305.44435],[446.66667,306.16667],[445.62662,305.57236],[444.4306,305.6388],[443.62303,304.42744],[442.29167,303.66667],[441.79716,301.68865],[441.63551,301.44618],[441.68306,301.23223],[441.66667,301.16667],[441.66667,296.52735],[441.61197,296.28123],[441.33333,295.16667],[441.33333,295.02735],[441.30218,294.88716],[441.32996,294.84549],[441.27864,294.61456],[441,293.5],[441,293.36068],[440.96885,293.22049],[441,293.17376],[441,292.53508],[440.92325,292.41447],[440.58992,291.41447],[440.52827,290.61309],[440.4235,290.19401],[440.19453,289.73607],[440.07508,289.19854],[439.83071,288.74035],[439.44261,289.12846],[438.80547,290.40273],[438.28239,291.01299],[437.86887,291.7022],[437.77594,291.79513],[437.1388,293.0694],[436.61573,293.67966],[436.2022,294.36887],[435.96162,294.60945],[435.61573,295.01299],[435.45414,295.2823],[435.41008,295.41447],[434.79329,296.38372],[434.2022,297.36887],[434.10927,297.4618],[433.74316,298.19401],[433.72136,298.28123],[433.47214,299.40273],[433.40983,299.52735],[433.375,299.66667],[433.32624,299.69453],[433.1388,300.0694],[431.46175,302.02596],[430.51092,302.07878],[429.87934,302.68405],[428.18646,302.20792],[426.4306,302.30547],[425.94536,301.57761],[425.02863,301.31978],[423.81595,299.04601],[423.52919,297.89897],[422.70228,295.41824],[422.19453,294.40273],[422.11646,294.05142],[421.92325,293.74781],[421.63638,292.8872],[421.10152,291.55005],[420.22406,289.79513],[419.7978,289.36887],[419.61264,289.06027],[419.33333,288.83333],[417.3802,286.22915],[417.26935,286.09059],[416.94025,286.4197],[416.33333,287.16667],[415.28427,287.95346],[413.63744,289.60029],[412.95413,290.73915],[412.51889,291.17439],[412.2022,291.7022],[411.12013,292.78427],[410.33333,293.83333],[409.78161,294.28161],[409.33333,294.83333],[409.12166,294.99209],[408.97572,295.35695],[408.38657,296.17269],[407.86887,297.03553],[407.48922,297.41518],[407.46694,297.44603],[407.45699,297.44742],[406.60369,298.30071],[406.12662,299.05039],[405.78747,299.61563],[405.74342,299.74781],[405.55021,300.05142],[405.47214,300.40273],[405.1388,301.0694],[403.46175,303.02596],[403.26462,303.03691],[403.16667,303.20833],[400.66667,303.83333],[400.32624,303.83333],[400.27951,303.86449],[400.13932,303.83333],[400,303.83333],[398.88544,303.55469],[397.76393,303.30547],[397.63932,303.24316],[397.5,303.20833],[397.47214,303.15957],[397.09727,302.97214],[396.78732,302.70646],[396.53825,302.69263],[395.89323,301.9401],[395.14071,301.29508],[395.12687,301.04602],[394.8612,300.73607],[394.55739,300.12846],[393.7978,299.36887],[393.38427,298.67966],[392.8612,298.0694],[392.19453,296.73607],[392.07508,296.19854],[391.81595,295.71268],[391.72919,295.36563],[391.62363,295.18969],[391.29167,295],[391.13585,294.37673],[390.80531,293.82583],[390.8997,293.47973],[389.55739,290.79513],[389.46447,290.7022],[388.95696,289.85636],[388.625,289.66667],[388.46918,289.04339],[388.46447,289.03553],[388.36182,288.93289],[388.30675,288.92187],[388.22965,288.80071],[388.13113,288.7022],[387.54005,287.71706],[386.97023,286.82163],[386.79508,287.02596],[386.72848,287.02966],[386.45842,287.27516],[386.2022,287.7022],[386.10927,287.79513],[385.80547,288.40273],[385.28239,289.01299],[384.86887,289.7022],[384.62829,289.94278],[384.5398,290.04602],[384.52596,290.29508],[383.77344,290.9401],[383.60547,291.13607],[383.1388,292.0694],[382.61573,292.67966],[382.2022,293.36887],[381.55229,294.01878],[381.16025,294.60683],[380.79176,294.94183],[380.53553,295.36887],[380.44261,295.4618],[380.1388,296.0694],[379.61573,296.67966],[379.2022,297.36887],[378.96162,297.60945],[378.61573,298.01299],[378.2022,298.7022],[377.53553,299.36887],[375.32583,300.69469],[374.76403,300.54147],[374.27951,300.86449],[371.76393,300.30547],[371.09727,299.97214],[369.14071,298.29508],[369.12975,298.09795],[368.95833,298],[368.33333,295.5],[368.33333,294.69048],[368.29167,294.66667],[368.25684,294.52735],[368.19453,294.40273],[367.94531,293.28123],[367.66667,292.16667],[367.66667,292.02735],[367.63551,291.88716],[367.66667,291.84043],[367.66667,290.97805],[367.25658,289.74781],[367.20619,289.09273],[367.19453,289.0694],[367.11646,288.71809],[366.92325,288.41447],[366.58992,287.41447],[366.57488,287.219],[366.48262,287.04601],[366.19586,285.89897],[365.92325,285.08114],[365.86161,284.27975],[365.81139,284.07889],[365.64825,283.58948],[363.53553,285.7022],[362.91053,286.0772],[362.53553,286.7022],[361.2022,288.03553],[360.5772,288.41053],[360.2022,289.03553],[358.29495,290.94278],[358.26652,290.97596],[358.16025,291.2735],[357.49358,292.2735],[357.12509,292.6085],[356.86887,293.03553],[355.44261,294.4618],[355.1388,295.0694],[353.46175,297.02596],[352.08962,297.10219],[350.94618,297.86449],[348.4306,297.30547],[347.76393,296.97214],[347.45398,296.70646],[347.20492,296.69263],[346.5599,295.9401],[345.80737,295.29508],[345.79354,295.04602],[345.52786,294.73607],[345.0071,293.69453],[344.95833,293.66667],[344.9235,293.52735],[344.8612,293.40273],[344.61197,292.28123],[344.4235,291.52735],[344.0071,290.69453],[343.95833,290.66667],[343.9235,290.52735],[343.8612,290.40273],[343.61197,289.28123],[343.33333,288.16667],[343.33333,288.02735],[343.33243,288.0233],[343.29167,288],[343.25684,287.86068],[343.19453,287.73607],[342.94531,286.61456],[342.9235,286.52735],[342.8612,286.40273],[342.61197,285.28123],[342.59017,285.19401],[342.52786,285.0694],[342.44979,284.71809],[342.25658,284.41447],[342.03562,283.75158],[341.52786,282.73607],[341.40841,282.19854],[341.14929,281.71268],[341.02601,281.21955],[340.83975,280.94017],[340.72222,280.6111],[339.92014,281.34027],[339.89892,281.33881],[335.96162,285.27612],[335.61573,285.67966],[335.2022,286.36887],[334.55229,287.01878],[334.19688,287.55189],[334.19263,287.62842],[333.21056,288.47019],[333.03205,288.63248],[332.99959,288.68116],[332.80547,289.0694],[332.28239,289.67966],[331.86887,290.36887],[330.77594,291.4618],[330.47214,292.0694],[[330.17638,292.41445],[0,0],[-0.10022,0.39014]],[[329.74412,293.52353],[0.18592,-0.34722],[0,0]],[329.70833,293.66667],[[329.64241,293.70434],[0,0],[-0.22531,0.38176]],[[328.82738,294.74321],[0.31513,-0.3079],[0,0]],[328.2022,297.03553],[325.29859,297.82743],[325.12842,298.02596],[325.03629,298.03108],[324.36563,299.87538],[324.20218,300.11754]],&quot;closed&quot;:true}]}" fill="#88dc43" stroke-width="0.5"/><path d="M210.50719,165.99707l0.03909,0.04561l-0.06225,0.09338z" fill="#000000" stroke-width="0.5"/><path d="" fill="#000000" stroke-width="0.5"/><path d="M185.57143,175.54939c-0.00663,3.77462 -1.88805,10.60344 -6.9941,9.46876c-6.77895,-1.50644 -5.89431,-13.32982 -4.72018,-18.61339c0.65759,-2.95916 1.17235,-6.93829 5.12222,-6.06054c0.07734,-0.00721 0.1557,-0.01089 0.23492,-0.01089c0.47989,0 0.92821,0.13521 1.30892,0.36962c7.74953,2.50704 5.06018,8.03939 5.04823,14.84643z" fill="#000000" stroke-width="0.5"/><path d="M200.64596,162.1749c1.58747,0.35277 6.00458,0.4746 6.61297,2.26558c1.58005,4.65137 1.56725,19.84712 -7.30553,17.62893c-3.81821,-0.95455 -3.88965,-11.80862 -3.09625,-15.37893c0.07918,-0.35632 0.16951,-0.80288 0.29038,-1.27461c-0.00309,-0.05092 -0.00466,-0.10226 -0.00466,-0.15396c0,-0.68536 0.27579,-1.3063 0.72243,-1.75791c0.51787,-0.90048 1.29972,-1.50541 2.53841,-1.16758z" fill="#000000" stroke-width="0.5"/></g></g></svg>